{"glyphs":{"0":{"ha":919,"x_min":0,"x_max":0,"o":"m 460 -14 b 892 465 743 -14 892 179 b 460 944 892 750 743 944 b 28 465 175 944 28 750 b 460 -14 28 179 175 -14 z m 460 240 b 308 465 339 240 308 272 b 460 690 308 658 339 690 b 611 465 579 690 611 658 b 460 240 611 272 579 240 z "},"1":{"ha":515,"x_min":0,"x_max":0,"o":"m 474 0 l 474 931 l 231 931 b 46 815 189 847 133 815 l 0 815 l 0 611 l 213 611 l 213 0 z "},"2":{"ha":842,"x_min":0,"x_max":0,"o":"m 806 0 l 806 235 l 458 235 l 325 221 b 388 282 325 246 333 264 l 561 340 b 814 642 683 382 814 464 b 446 944 814 811 703 944 b 35 606 149 944 35 792 l 35 583 l 296 583 l 296 608 b 425 707 296 681 314 707 b 553 636 525 707 553 689 b 496 561 553 594 536 581 l 249 440 b 43 146 128 382 43 319 l 43 0 z "},"3":{"ha":847,"x_min":0,"x_max":0,"o":"m 426 -14 b 833 263 701 -14 833 90 b 600 485 833 392 757 479 l 600 503 b 790 701 728 514 790 585 b 429 944 790 867 640 944 b 28 646 171 944 28 829 l 28 601 l 285 601 l 285 631 b 407 696 285 681 306 696 b 529 636 508 696 529 685 b 460 576 529 589 514 576 l 324 576 l 324 374 l 492 374 b 568 307 544 374 568 360 b 419 235 568 239 518 235 b 285 300 310 235 285 250 l 285 347 l 28 347 l 28 285 b 426 -14 28 101 135 -14 z "},"4":{"ha":901,"x_min":0,"x_max":0,"o":"m 763 0 l 763 163 l 888 163 l 888 397 l 763 397 l 763 931 l 460 931 l 14 353 l 14 163 l 503 163 l 503 0 z m 332 397 l 332 410 l 490 625 l 503 625 l 503 397 z "},"5":{"ha":853,"x_min":0,"x_max":0,"o":"m 426 -14 b 825 315 722 -14 825 131 b 524 608 825 490 724 608 b 304 549 406 608 335 572 l 294 549 l 304 696 l 775 696 l 775 931 l 72 931 l 49 389 l 282 361 b 433 390 311 374 364 390 b 568 306 529 390 568 378 b 439 224 568 242 529 224 b 308 279 342 224 308 235 l 308 300 l 50 300 l 50 278 b 426 -14 50 99 182 -14 z "},"6":{"ha":861,"x_min":0,"x_max":0,"o":"m 463 -14 b 840 296 706 -14 840 107 b 539 569 840 475 733 569 b 310 486 425 569 344 531 l 303 486 l 303 599 b 425 690 303 665 325 690 b 540 621 506 690 540 679 l 540 613 l 818 613 l 818 635 b 453 944 818 822 688 944 b 28 485 183 944 28 794 b 463 -14 28 160 150 -14 z m 449 233 b 311 307 329 233 311 253 b 449 381 311 360 329 381 b 588 307 569 381 588 360 b 449 233 588 253 569 233 z "},"7":{"ha":778,"x_min":0,"x_max":0,"o":"m 406 -1 b 764 714 406 306 503 472 l 764 931 l 14 931 l 14 696 l 458 696 l 458 689 b 117 -1 328 583 117 397 z "},"8":{"ha":881,"x_min":0,"x_max":0,"o":"m 440 -14 b 853 263 711 -14 853 90 b 675 486 853 396 765 465 l 675 499 b 824 701 749 524 824 585 b 440 944 824 843 708 944 b 57 701 172 944 57 843 b 206 499 57 585 131 524 l 206 486 b 28 263 114 465 28 396 b 440 -14 28 90 169 -14 z m 440 563 b 318 636 340 563 318 582 b 440 710 318 689 340 710 b 563 636 540 710 563 689 b 440 563 563 582 540 563 z m 440 215 b 293 301 315 215 293 239 b 440 388 293 364 315 388 b 588 301 565 388 588 364 b 440 215 588 239 565 215 z "},"9":{"ha":861,"x_min":0,"x_max":0,"o":"m 435 -14 b 833 446 701 -14 833 136 b 399 944 833 771 711 944 b 21 635 156 944 21 824 b 322 361 21 456 128 361 b 551 444 436 361 517 400 l 558 444 l 558 332 b 436 226 558 256 536 226 b 321 303 356 226 321 239 l 321 311 l 43 311 l 43 303 b 435 -14 43 125 183 -14 z m 413 550 b 274 624 292 550 274 571 b 413 697 274 678 292 697 b 550 624 532 697 550 678 b 413 550 550 571 532 550 z "},"\r":{"ha":417,"x_min":0,"x_max":0,"o":""}," ":{"ha":208,"x_min":0,"x_max":0,"o":""},"A":{"ha":997,"x_min":0,"x_max":0,"o":"m 256 0 l 315 179 l 668 179 l 725 0 l 1011 0 l 689 931 l 310 931 l -14 0 z m 408 461 l 485 704 l 504 704 l 578 461 l 594 407 l 390 407 z "},"B":{"ha":917,"x_min":0,"x_max":0,"o":"m 571 0 b 903 258 799 0 903 96 b 669 485 903 383 826 479 l 669 503 b 860 701 797 514 860 585 b 543 931 860 860 756 931 l 49 931 l 49 0 z m 310 696 l 524 696 b 599 636 578 696 599 686 b 529 576 599 589 583 576 l 310 576 z m 310 374 l 561 374 b 638 303 614 374 638 365 b 561 235 638 242 611 235 l 310 235 z "},"C":{"ha":956,"x_min":0,"x_max":0,"o":"m 490 -14 b 928 356 785 -14 928 139 l 928 388 l 649 388 l 649 383 b 485 240 649 276 614 240 b 308 465 351 240 308 272 b 485 690 308 658 351 690 b 649 547 614 690 649 654 l 649 543 l 928 543 l 928 575 b 490 944 928 792 785 944 b 28 465 190 944 28 756 b 490 -14 28 175 190 -14 z "},"D":{"ha":951,"x_min":0,"x_max":0,"o":"m 450 0 b 924 465 756 0 924 171 b 450 931 924 760 756 931 l 49 931 l 49 0 z m 436 696 b 642 465 600 696 642 661 b 436 235 642 269 600 235 l 310 235 l 310 696 z "},"E":{"ha":838,"x_min":0,"x_max":0,"o":"m 800 0 l 800 235 l 310 235 l 310 350 l 779 350 l 779 583 l 310 583 l 310 696 l 800 696 l 800 931 l 49 931 l 49 0 z "},"F":{"ha":783,"x_min":0,"x_max":0,"o":"m 310 0 l 310 310 l 749 310 l 749 543 l 310 543 l 310 696 l 769 696 l 769 931 l 49 931 l 49 0 z "},"G":{"ha":978,"x_min":0,"x_max":0,"o":"m 426 -14 b 683 131 597 -14 656 63 l 696 131 l 696 0 l 940 0 l 940 501 l 468 501 l 468 306 l 688 306 b 514 226 683 249 649 226 b 308 465 358 226 308 258 b 490 690 308 653 353 690 b 660 576 624 690 660 661 l 660 572 l 939 572 l 939 582 b 508 944 939 800 799 944 b 28 465 197 944 28 756 b 426 -14 28 165 164 -14 z "},"H":{"ha":968,"x_min":0,"x_max":0,"o":"m 310 0 l 310 350 l 658 350 l 658 0 l 919 0 l 919 931 l 658 931 l 658 585 l 310 585 l 310 931 l 49 931 l 49 0 z "},"I":{"ha":358,"x_min":0,"x_max":0,"o":"m 310 0 l 310 931 l 49 931 l 49 0 z "},"J":{"ha":832,"x_min":0,"x_max":0,"o":"m 407 -14 b 789 375 675 -14 789 122 l 789 931 l 510 931 l 510 343 b 397 240 510 261 492 240 b 285 343 304 240 285 261 l 285 393 l 7 393 l 7 338 b 407 -14 7 108 128 -14 z "},"K":{"ha":944,"x_min":0,"x_max":0,"o":"m 310 0 l 310 331 l 482 331 l 653 0 l 953 0 l 696 469 l 958 931 l 663 931 l 479 585 l 310 585 l 310 931 l 49 931 l 49 0 z "},"L":{"ha":790,"x_min":0,"x_max":0,"o":"m 776 0 l 776 235 l 310 235 l 310 931 l 49 931 l 49 0 z "},"M":{"ha":1207,"x_min":0,"x_max":0,"o":"m 310 0 l 310 340 l 293 540 l 311 540 l 369 326 l 444 97 l 763 97 l 838 326 l 894 540 l 913 540 l 897 340 l 897 0 l 1158 0 l 1158 931 l 806 931 l 682 564 l 618 324 l 600 324 l 540 564 l 401 931 l 49 931 l 49 0 z "},"N":{"ha":961,"x_min":0,"x_max":0,"o":"m 310 0 l 310 388 l 296 519 l 314 519 l 389 388 l 635 0 l 913 0 l 913 931 l 653 931 l 653 513 l 667 399 l 649 399 l 588 513 l 328 931 l 49 931 l 49 0 z "},"O":{"ha":990,"x_min":0,"x_max":0,"o":"m 496 -14 b 963 465 790 -14 963 175 b 496 944 963 756 790 944 b 28 465 200 944 28 756 b 496 -14 28 175 200 -14 z m 496 240 b 308 465 351 240 308 286 b 496 690 308 644 351 690 b 682 465 639 690 682 644 b 496 240 682 286 639 240 z "},"P":{"ha":861,"x_min":0,"x_max":0,"o":"m 310 0 l 310 246 l 489 246 b 854 588 711 246 854 367 b 489 931 854 801 711 931 l 49 931 l 49 0 z m 479 696 b 593 588 568 696 593 679 b 479 479 593 496 568 479 l 310 479 l 310 696 z "},"Q":{"ha":990,"x_min":0,"x_max":0,"o":"m 914 -196 l 736 39 b 963 465 882 115 963 267 b 496 944 963 756 790 944 b 28 465 200 944 28 756 b 465 -12 28 185 188 0 l 571 -196 z m 496 240 b 308 465 351 240 308 286 b 496 690 308 644 351 690 b 682 465 639 690 682 644 b 496 240 682 286 639 240 z "},"R":{"ha":914,"x_min":0,"x_max":0,"o":"m 310 0 l 310 297 l 374 297 b 518 193 461 297 479 274 l 610 0 l 914 0 l 817 211 b 649 375 781 290 743 350 l 649 388 b 863 644 806 406 863 497 b 517 931 863 831 751 931 l 49 931 l 49 0 z m 310 696 l 507 696 b 601 608 581 696 601 676 b 507 514 601 535 581 514 l 310 514 z "},"S":{"ha":864,"x_min":0,"x_max":0,"o":"m 446 -14 b 836 289 725 -14 836 126 b 563 571 836 433 760 536 l 360 607 b 288 658 306 617 288 629 b 411 710 288 693 313 710 b 554 633 528 710 554 688 l 554 617 l 811 617 l 811 640 b 428 944 811 814 688 944 b 28 649 154 944 28 814 b 294 375 28 504 106 404 l 497 343 b 575 276 561 333 575 319 b 456 221 575 236 554 221 b 303 313 331 221 303 236 l 303 324 l 46 324 l 46 306 b 446 -14 46 111 179 -14 z "},"T":{"ha":861,"x_min":0,"x_max":0,"o":"m 561 0 l 561 696 l 847 696 l 847 931 l 14 931 l 14 696 l 300 696 l 300 0 z "},"U":{"ha":922,"x_min":0,"x_max":0,"o":"m 461 -14 b 881 360 749 -14 881 133 l 881 931 l 619 931 l 619 374 b 461 240 619 269 594 240 b 303 374 328 240 303 269 l 303 931 l 42 931 l 42 360 b 461 -14 42 133 174 -14 z "},"V":{"ha":969,"x_min":0,"x_max":0,"o":"m 664 0 l 983 931 l 689 931 l 496 292 l 478 292 l 281 931 l -14 931 l 304 0 z "},"W":{"ha":1372,"x_min":0,"x_max":0,"o":"m 546 0 l 626 353 l 678 671 l 694 671 l 744 353 l 825 0 l 1208 0 l 1372 931 l 1089 931 l 1049 617 l 1015 233 l 997 233 l 939 617 l 875 931 l 501 931 l 433 603 l 383 233 l 365 233 l 333 603 l 289 931 l 0 931 l 163 0 z "},"X":{"ha":935,"x_min":0,"x_max":0,"o":"m 296 0 l 453 300 l 465 300 l 635 0 l 942 0 l 682 468 l 682 481 l 942 931 l 639 931 l 482 628 l 469 628 l 300 931 l -7 931 l 256 475 l 256 463 l -7 0 z "},"Y":{"ha":961,"x_min":0,"x_max":0,"o":"m 611 0 l 611 317 l 975 931 l 671 931 l 554 711 l 493 572 l 475 572 l 413 711 l 296 931 l -14 931 l 350 314 l 350 0 z "},"Z":{"ha":856,"x_min":0,"x_max":0,"o":"m 828 0 l 828 235 l 383 235 l 383 253 l 814 717 l 814 931 l 49 931 l 49 696 l 447 696 l 447 678 l 28 214 l 28 0 z "},"Æ":{"ha":1549,"x_min":0,"x_max":0,"o":"m 315 0 l 422 172 l 760 172 l 760 0 l 1511 0 l 1511 235 l 1021 235 l 1021 350 l 1490 350 l 1490 583 l 1021 583 l 1021 696 l 1511 696 l 1511 931 l 596 931 l -14 0 z m 751 699 l 760 699 l 760 407 l 569 407 z "},"Ǽ":{"ha":1549,"x_min":0,"x_max":0,"o":"m 1071 1014 l 1322 1193 l 1322 1200 l 964 1200 l 801 1021 l 801 1014 z m 315 0 l 422 172 l 760 172 l 760 0 l 1511 0 l 1511 235 l 1021 235 l 1021 350 l 1490 350 l 1490 583 l 1021 583 l 1021 696 l 1511 696 l 1511 931 l 596 931 l -14 0 z m 751 699 l 760 699 l 760 407 l 569 407 z "},"Œ":{"ha":1443,"x_min":0,"x_max":0,"o":"m 1406 0 l 1406 235 l 915 235 l 915 350 l 1385 350 l 1385 583 l 915 583 l 915 696 l 1406 696 l 1406 931 l 501 931 b 28 465 196 931 28 760 b 501 0 28 171 196 0 z m 515 235 b 310 465 351 235 310 269 b 515 696 310 661 351 696 l 654 696 l 654 235 z "},"a":{"ha":757,"x_min":0,"x_max":0,"o":"m 238 -14 b 464 86 371 -14 433 42 l 476 86 l 476 0 l 721 0 l 721 428 b 390 728 721 629 611 728 b 38 443 176 728 38 619 l 38 426 l 286 426 l 286 449 b 381 506 286 492 304 506 b 472 446 457 506 472 490 l 472 421 l 244 385 b 21 182 93 360 21 293 b 238 -14 21 51 115 -14 z m 260 206 b 299 239 260 225 271 235 l 472 268 b 324 175 468 201 425 175 b 260 206 275 175 260 181 z "},"b":{"ha":832,"x_min":0,"x_max":0,"o":"m 285 0 l 285 97 l 293 97 b 522 -14 332 31 407 -14 b 804 357 703 -14 804 132 b 517 728 804 582 706 728 b 314 619 414 728 344 685 l 301 619 l 301 931 l 42 931 l 42 0 z m 301 332 l 301 383 b 422 501 301 481 340 501 b 544 357 532 501 544 453 b 422 214 544 261 531 214 b 301 332 340 214 301 233 z "},"c":{"ha":776,"x_min":0,"x_max":0,"o":"m 401 -14 b 749 288 607 -14 749 97 l 749 318 l 488 318 l 488 296 b 392 217 488 238 457 217 b 286 357 314 217 286 242 b 392 497 286 472 314 497 b 488 418 457 497 488 476 l 488 396 l 749 396 l 749 426 b 401 728 749 617 607 728 b 28 350 163 728 28 586 b 401 -14 28 122 163 -14 z "},"d":{"ha":832,"x_min":0,"x_max":0,"o":"m 310 -14 b 539 97 425 -14 500 31 l 547 97 l 547 0 l 790 0 l 790 931 l 531 931 l 531 619 l 518 619 b 315 728 488 685 418 728 b 28 357 126 728 28 582 b 310 -14 28 132 129 -14 z m 288 357 b 410 501 288 453 300 501 b 531 383 492 501 531 481 l 531 332 b 410 214 531 233 492 214 b 288 357 301 214 288 261 z "},"e":{"ha":772,"x_min":0,"x_max":0,"o":"m 390 -14 b 736 233 603 -14 736 89 l 736 250 l 478 250 l 478 247 b 394 203 478 215 457 203 b 271 297 299 203 275 221 l 733 297 b 744 403 738 321 744 364 b 399 728 744 593 629 728 b 28 350 161 728 28 586 b 390 -14 28 122 158 -14 z m 385 522 b 496 439 471 522 494 485 l 271 439 b 385 522 275 497 304 522 z "},"f":{"ha":508,"x_min":0,"x_max":0,"o":"m 363 0 l 363 500 l 501 500 l 501 714 l 351 714 b 410 763 351 753 371 763 l 501 763 l 501 931 b 369 947 453 942 419 947 b 103 714 194 947 115 840 l 0 714 l 0 500 l 101 500 l 101 0 z "},"g":{"ha":832,"x_min":0,"x_max":0,"o":"m 326 89 b 519 167 431 89 494 126 l 531 167 l 531 56 b 428 -19 531 -8 507 -19 b 322 51 336 -19 322 -3 l 61 51 b 419 -250 61 -147 192 -250 b 790 111 665 -250 790 -143 l 790 714 l 547 714 l 547 624 l 539 624 b 331 728 494 699 424 728 b 28 401 131 728 28 600 b 326 89 28 211 128 89 z m 288 401 b 411 508 288 471 308 508 b 531 418 497 508 531 488 l 531 386 b 407 296 531 315 496 296 b 288 401 306 296 288 332 z "},"h":{"ha":821,"x_min":0,"x_max":0,"o":"m 301 0 l 301 403 b 414 504 301 479 328 504 b 524 403 506 504 524 479 l 524 0 l 785 0 l 785 457 b 526 728 785 604 715 728 b 314 619 432 728 353 686 l 301 619 l 301 931 l 42 931 l 42 0 z "},"i":{"ha":344,"x_min":0,"x_max":0,"o":"m 301 778 l 301 931 l 42 931 l 42 778 z m 303 0 l 303 714 l 42 714 l 42 0 z "},"j":{"ha":342,"x_min":0,"x_max":0,"o":"m 300 778 l 300 931 l 39 931 l 39 778 z m -64 -222 b 51 -236 -32 -229 15 -236 b 300 7 193 -236 300 -183 l 300 714 l 39 714 l 39 4 b -17 -49 39 -40 28 -49 l -64 -49 z "},"k":{"ha":797,"x_min":0,"x_max":0,"o":"m 301 0 l 301 238 l 404 238 l 526 0 l 811 0 l 613 364 l 811 714 l 526 714 l 399 471 l 301 471 l 301 931 l 42 931 l 42 0 z "},"l":{"ha":343,"x_min":0,"x_max":0,"o":"m 301 0 l 301 931 l 42 931 l 42 0 z "},"m":{"ha":1276,"x_min":0,"x_max":0,"o":"m 301 0 l 301 407 b 408 504 301 483 326 504 b 510 403 493 504 510 479 l 510 0 l 771 0 l 771 407 b 878 504 771 483 796 504 b 979 403 963 504 979 479 l 979 0 l 1240 0 l 1240 457 b 986 728 1240 604 1171 728 b 753 606 882 728 801 686 l 740 606 b 517 728 704 679 633 728 b 297 606 418 728 336 685 l 285 606 l 285 714 l 42 714 l 42 0 z "},"n":{"ha":821,"x_min":0,"x_max":0,"o":"m 301 0 l 301 407 b 414 504 301 483 328 504 b 524 403 506 504 524 479 l 524 0 l 785 0 l 785 457 b 531 728 785 604 715 728 b 297 606 425 728 336 686 l 285 606 l 285 714 l 42 714 l 42 0 z "},"o":{"ha":800,"x_min":0,"x_max":0,"o":"m 400 -14 b 772 357 636 -14 772 126 b 400 728 772 589 636 728 b 28 357 164 728 28 589 b 400 -14 28 126 164 -14 z m 400 213 b 288 357 313 213 288 243 b 400 501 288 471 313 501 b 513 357 488 501 513 471 b 400 213 513 243 488 213 z "},"p":{"ha":832,"x_min":0,"x_max":0,"o":"m 301 -222 l 301 94 l 314 94 b 517 -14 344 29 414 -14 b 804 357 719 -14 804 132 b 514 728 804 582 717 728 b 293 617 407 728 332 683 l 285 617 l 285 714 l 42 714 l 42 -222 z m 301 331 l 301 382 b 422 500 301 481 340 500 b 544 357 531 500 544 453 b 422 213 544 261 532 213 b 301 331 340 213 301 233 z "},"q":{"ha":832,"x_min":0,"x_max":0,"o":"m 315 -14 b 518 94 418 -14 488 29 l 531 94 l 531 -222 l 790 -222 l 790 714 l 547 714 l 547 617 l 539 617 b 310 728 500 683 425 728 b 28 357 129 728 28 582 b 315 -14 28 132 126 -14 z m 288 357 b 410 500 288 453 301 500 b 531 382 492 500 531 481 l 531 331 b 410 213 531 233 492 213 b 288 357 300 213 288 261 z "},"r":{"ha":693,"x_min":0,"x_max":0,"o":"m 301 0 l 301 451 b 367 508 301 503 324 508 b 425 440 415 508 425 493 l 425 369 l 686 369 l 686 499 b 500 728 686 639 638 728 b 297 606 406 728 338 675 l 285 606 l 285 714 l 42 714 l 42 0 z "},"s":{"ha":703,"x_min":0,"x_max":0,"o":"m 368 -14 b 689 217 578 -14 689 82 b 475 428 689 332 635 394 l 315 461 b 263 499 269 471 263 481 b 333 532 263 519 271 532 b 418 476 400 532 418 519 l 418 464 l 663 464 l 663 490 b 340 728 663 647 524 728 b 22 499 129 728 22 631 b 244 278 22 360 103 304 l 381 253 b 447 213 440 242 447 235 b 368 179 447 186 440 179 b 268 228 281 179 268 189 l 268 246 l 25 246 l 25 242 b 368 -14 25 79 132 -14 z "},"t":{"ha":572,"x_min":0,"x_max":0,"o":"m 378 -14 b 544 3 443 -14 508 -6 l 544 221 l 431 221 b 356 275 371 221 356 232 l 356 500 l 544 500 l 544 714 l 356 714 l 356 861 l 149 861 l 103 714 l 0 714 l 0 500 l 94 500 l 94 236 b 378 -14 94 64 185 -14 z "},"u":{"ha":821,"x_min":0,"x_max":0,"o":"m 290 -14 b 524 108 396 -14 485 28 l 536 108 l 536 0 l 779 0 l 779 714 l 519 714 l 519 307 b 407 210 519 231 493 210 b 297 311 315 210 297 235 l 297 714 l 36 714 l 36 257 b 290 -14 36 110 106 -14 z "},"v":{"ha":840,"x_min":0,"x_max":0,"o":"m 586 0 l 854 714 l 568 714 l 432 260 l 414 260 l 278 714 l -14 714 l 253 0 z "},"w":{"ha":1186,"x_min":0,"x_max":0,"o":"m 499 0 l 567 301 l 585 475 l 603 475 l 621 301 l 688 0 l 1042 0 l 1186 714 l 910 714 l 881 413 l 868 203 l 850 203 l 828 413 l 765 714 l 432 714 l 371 413 l 349 204 l 329 204 l 317 413 l 288 714 l 0 714 l 144 0 z "},"x":{"ha":825,"x_min":0,"x_max":0,"o":"m 282 0 l 397 213 l 410 213 l 532 0 l 825 0 l 613 347 l 613 360 l 825 714 l 543 714 l 428 496 l 415 496 l 292 714 l 0 714 l 213 368 l 213 356 l 0 0 z "},"y":{"ha":796,"x_min":0,"x_max":0,"o":"m 213 -236 b 529 -18 351 -236 467 -182 l 810 714 l 522 714 l 443 421 l 414 283 l 396 283 l 364 421 l 269 714 l -21 714 l 264 32 b 193 0 251 6 236 0 l 47 0 l 47 -217 b 213 -236 81 -225 151 -236 z "},"z":{"ha":746,"x_min":0,"x_max":0,"o":"m 718 0 l 718 228 l 461 228 l 367 217 l 363 233 l 461 293 l 697 496 l 697 714 l 49 714 l 49 486 l 271 486 l 374 500 l 378 483 l 271 428 l 28 199 l 28 0 z "},"æ":{"ha":1222,"x_min":0,"x_max":0,"o":"m 265 -14 b 557 99 408 -14 497 29 b 840 -14 618 26 714 -14 b 1186 233 1053 -14 1186 89 l 1186 250 l 928 250 l 928 247 b 844 203 928 215 907 203 b 721 297 749 203 725 221 l 1183 297 b 1194 403 1188 321 1194 364 b 849 728 1194 593 1079 728 b 617 664 754 728 676 706 b 390 728 563 706 486 728 b 38 443 176 728 38 619 l 38 419 l 286 419 l 286 442 b 381 503 286 486 304 503 b 472 442 457 503 472 486 l 472 422 l 231 386 b 21 188 90 365 21 299 b 265 -14 21 57 110 -14 z m 835 519 b 946 436 921 519 944 482 l 721 436 b 835 519 725 494 754 519 z m 260 206 b 297 238 260 224 269 232 l 483 271 b 338 175 479 201 439 175 b 260 206 278 175 260 186 z "},"ǽ":{"ha":1222,"x_min":0,"x_max":0,"o":"m 756 778 l 1003 951 l 1003 958 l 643 958 l 486 785 l 486 778 z m 265 -14 b 557 99 408 -14 497 29 b 840 -14 618 26 714 -14 b 1186 233 1053 -14 1186 89 l 1186 250 l 928 250 l 928 247 b 844 203 928 215 907 203 b 721 297 749 203 725 221 l 1183 297 b 1194 403 1188 321 1194 364 b 849 728 1194 593 1079 728 b 617 664 754 728 676 706 b 390 728 563 706 486 728 b 38 443 176 728 38 619 l 38 419 l 286 419 l 286 442 b 381 503 286 486 304 503 b 472 442 457 503 472 486 l 472 422 l 231 386 b 21 188 90 365 21 299 b 265 -14 21 57 110 -14 z m 835 519 b 946 436 921 519 944 482 l 721 436 b 835 519 725 494 754 519 z m 260 206 b 297 238 260 224 269 232 l 483 271 b 338 175 479 201 439 175 b 260 206 278 175 260 186 z "},"œ":{"ha":1275,"x_min":0,"x_max":0,"o":"m 400 -14 b 649 61 503 -14 586 13 b 893 -14 708 13 790 -14 b 1239 233 1106 -14 1239 89 l 1239 250 l 981 250 l 981 247 b 897 203 981 215 960 203 b 774 297 801 203 778 221 l 1236 297 b 1247 403 1240 321 1247 364 b 901 728 1247 593 1132 728 b 651 650 797 728 714 700 b 400 728 589 700 504 728 b 28 357 164 728 28 589 b 400 -14 28 126 164 -14 z m 888 522 b 999 439 974 522 997 485 l 774 439 b 888 522 778 497 807 522 z m 400 213 b 288 357 313 213 288 243 b 400 501 288 471 313 501 b 513 357 488 501 513 471 b 400 213 513 243 488 213 z "},"ﬀ":{"ha":993,"x_min":0,"x_max":0,"o":"m 363 0 l 363 500 l 586 500 l 586 0 l 847 0 l 847 500 l 986 500 l 986 714 l 836 714 b 894 763 836 753 856 763 l 986 763 l 986 931 b 854 947 938 942 904 947 b 588 714 679 947 600 840 l 351 714 b 410 763 351 753 371 763 l 501 763 l 501 931 b 369 947 453 942 419 947 b 103 714 194 947 115 840 l 0 714 l 0 500 l 101 500 l 101 0 z "},"Á":{"ha":997,"x_min":0,"x_max":0,"o":"m 649 1014 l 900 1193 l 900 1200 l 542 1200 l 379 1021 l 379 1014 z m 256 0 l 315 179 l 668 179 l 725 0 l 1011 0 l 689 931 l 310 931 l -14 0 z m 408 461 l 485 704 l 504 704 l 578 461 l 594 407 l 390 407 z "},"Â":{"ha":997,"x_min":0,"x_max":0,"o":"m 442 1014 l 490 1081 l 508 1081 l 557 1014 l 810 1014 l 810 1021 l 657 1194 l 342 1194 l 190 1021 l 190 1014 z m 256 0 l 315 179 l 668 179 l 725 0 l 1011 0 l 689 931 l 310 931 l -14 0 z m 408 461 l 485 704 l 504 704 l 578 461 l 594 407 l 390 407 z "},"Ä":{"ha":997,"x_min":0,"x_max":0,"o":"m 788 1014 l 788 1207 l 540 1207 l 540 1014 z m 458 1014 l 458 1207 l 213 1207 l 213 1014 z m 256 0 l 315 179 l 668 179 l 725 0 l 1011 0 l 689 931 l 310 931 l -14 0 z m 408 461 l 485 704 l 504 704 l 578 461 l 594 407 l 390 407 z "},"À":{"ha":997,"x_min":0,"x_max":0,"o":"m 633 1014 l 633 1021 l 471 1200 l 111 1200 l 111 1193 l 363 1014 z m 256 0 l 315 179 l 668 179 l 725 0 l 1011 0 l 689 931 l 310 931 l -14 0 z m 408 461 l 485 704 l 504 704 l 578 461 l 594 407 l 390 407 z "},"Å":{"ha":997,"x_min":0,"x_max":0,"o":"m 256 0 l 315 179 l 668 179 l 725 0 l 1011 0 l 700 899 b 724 988 715 924 724 954 b 500 1171 724 1099 632 1171 b 278 988 367 1171 278 1099 b 300 901 278 956 285 926 l -14 0 z m 500 950 b 435 986 447 950 435 960 b 500 1022 435 1013 447 1022 b 565 986 553 1022 565 1013 b 500 950 565 960 553 950 z m 408 461 l 485 704 l 504 704 l 578 461 l 594 407 l 390 407 z "},"Ã":{"ha":997,"x_min":0,"x_max":0,"o":"m 400 996 l 400 1026 b 421 1054 400 1042 404 1054 b 449 1047 428 1054 438 1051 l 531 1015 b 649 988 569 1000 608 988 b 772 1121 746 988 772 1057 l 772 1218 l 599 1218 l 599 1193 b 578 1161 599 1169 593 1161 b 529 1175 567 1161 551 1167 l 469 1200 b 367 1226 432 1215 404 1226 b 226 1078 250 1226 226 1143 l 226 996 z m 256 0 l 315 179 l 668 179 l 725 0 l 1011 0 l 689 931 l 310 931 l -14 0 z m 408 461 l 485 704 l 504 704 l 578 461 l 594 407 l 390 407 z "},"Ă":{"ha":997,"x_min":0,"x_max":0,"o":"m 499 1000 b 729 1174 638 1000 729 1060 l 729 1200 l 549 1200 l 549 1188 b 500 1153 549 1164 543 1153 b 450 1188 456 1153 450 1164 l 450 1200 l 269 1200 l 269 1174 b 499 1000 269 1060 361 1000 z m 256 0 l 315 179 l 668 179 l 725 0 l 1011 0 l 689 931 l 310 931 l -14 0 z m 408 461 l 485 704 l 504 704 l 578 461 l 594 407 l 390 407 z "},"Ā":{"ha":997,"x_min":0,"x_max":0,"o":"m 732 1018 l 732 1190 l 267 1190 l 267 1018 z m 256 0 l 315 179 l 668 179 l 725 0 l 1011 0 l 689 931 l 310 931 l -14 0 z m 408 461 l 485 704 l 504 704 l 578 461 l 594 407 l 390 407 z "},"Ą":{"ha":997,"x_min":0,"x_max":0,"o":"m 256 0 l 315 179 l 668 179 l 725 0 l 840 0 l 810 -35 b 743 -164 772 -76 743 -119 b 863 -260 743 -231 786 -260 l 1029 -260 l 1029 -107 l 954 -107 b 940 -96 946 -107 940 -104 b 949 -79 940 -89 943 -86 l 1011 0 l 689 931 l 310 931 l -14 0 z m 408 461 l 485 704 l 504 704 l 578 461 l 594 407 l 390 407 z "},"Ç":{"ha":956,"x_min":0,"x_max":0,"o":"m 526 -335 b 703 -187 640 -335 703 -276 b 538 -50 703 -104 643 -50 l 532 -50 l 532 -12 b 928 356 799 1 928 150 l 928 388 l 649 388 l 649 383 b 485 240 649 276 614 240 b 308 465 351 240 308 272 b 485 690 308 658 351 690 b 649 547 614 690 649 654 l 649 543 l 928 543 l 928 575 b 490 944 928 792 785 944 b 28 465 190 944 28 756 b 400 -8 28 206 158 26 l 400 -168 l 533 -168 b 554 -185 549 -168 554 -172 b 533 -201 554 -197 549 -201 l 361 -201 l 361 -335 z "},"Ć":{"ha":956,"x_min":0,"x_max":0,"o":"m 647 1014 l 899 1193 l 899 1200 l 540 1200 l 378 1021 l 378 1014 z m 490 -14 b 928 356 785 -14 928 139 l 928 388 l 649 388 l 649 383 b 485 240 649 276 614 240 b 308 465 351 240 308 272 b 485 690 308 658 351 690 b 649 547 614 690 649 654 l 649 543 l 928 543 l 928 575 b 490 944 928 792 785 944 b 28 465 190 944 28 756 b 490 -14 28 175 190 -14 z "},"Č":{"ha":956,"x_min":0,"x_max":0,"o":"m 557 1194 l 508 1128 l 490 1128 l 442 1194 l 189 1194 l 189 1188 l 342 1014 l 657 1014 l 808 1188 l 808 1194 z m 490 -14 b 928 356 785 -14 928 139 l 928 388 l 649 388 l 649 383 b 485 240 649 276 614 240 b 308 465 351 240 308 272 b 485 690 308 658 351 690 b 649 547 614 690 649 654 l 649 543 l 928 543 l 928 575 b 490 944 928 792 785 944 b 28 465 190 944 28 756 b 490 -14 28 175 190 -14 z "},"Ĉ":{"ha":956,"x_min":0,"x_max":0,"o":"m 440 1014 l 489 1081 l 507 1081 l 556 1014 l 808 1014 l 808 1021 l 656 1194 l 340 1194 l 189 1021 l 189 1014 z m 490 -14 b 928 356 785 -14 928 139 l 928 388 l 649 388 l 649 383 b 485 240 649 276 614 240 b 308 465 351 240 308 272 b 485 690 308 658 351 690 b 649 547 614 690 649 654 l 649 543 l 928 543 l 928 575 b 490 944 928 792 785 944 b 28 465 190 944 28 756 b 490 -14 28 175 190 -14 z "},"Ċ":{"ha":956,"x_min":0,"x_max":0,"o":"m 629 1014 l 629 1207 l 368 1207 l 368 1014 z m 490 -14 b 928 356 785 -14 928 139 l 928 388 l 649 388 l 649 383 b 485 240 649 276 614 240 b 308 465 351 240 308 272 b 485 690 308 658 351 690 b 649 547 614 690 649 654 l 649 543 l 928 543 l 928 575 b 490 944 928 792 785 944 b 28 465 190 944 28 756 b 490 -14 28 175 190 -14 z "},"Ď":{"ha":951,"x_min":0,"x_max":0,"o":"m 503 1194 l 454 1128 l 436 1128 l 388 1194 l 135 1194 l 135 1188 l 288 1014 l 603 1014 l 754 1188 l 754 1194 z m 450 0 b 924 465 756 0 924 171 b 450 931 924 760 756 931 l 49 931 l 49 0 z m 436 696 b 642 465 600 696 642 661 b 436 235 642 269 600 235 l 310 235 l 310 696 z "},"Đ":{"ha":972,"x_min":0,"x_max":0,"o":"m 471 0 b 944 465 776 0 944 171 b 471 931 944 760 776 931 l 69 931 l 69 582 l 0 582 l 0 349 l 69 349 l 69 0 z m 513 349 l 513 582 l 331 582 l 331 696 l 457 696 b 663 465 621 696 663 661 b 457 235 663 269 621 235 l 331 235 l 331 349 z "},"Ð":{"ha":972,"x_min":0,"x_max":0,"o":"m 471 0 b 944 465 776 0 944 171 b 471 931 944 760 776 931 l 69 931 l 69 582 l 0 582 l 0 349 l 69 349 l 69 0 z m 513 349 l 513 582 l 331 582 l 331 696 l 457 696 b 663 465 621 696 663 661 b 457 235 663 269 621 235 l 331 235 l 331 349 z "},"É":{"ha":838,"x_min":0,"x_max":0,"o":"m 572 1014 l 824 1193 l 824 1200 l 465 1200 l 303 1021 l 303 1014 z m 800 0 l 800 235 l 310 235 l 310 350 l 779 350 l 779 583 l 310 583 l 310 696 l 800 696 l 800 931 l 49 931 l 49 0 z "},"Ĕ":{"ha":838,"x_min":0,"x_max":0,"o":"m 422 1000 b 653 1174 561 1000 653 1060 l 653 1200 l 472 1200 l 472 1188 b 424 1153 472 1164 467 1153 b 374 1188 379 1153 374 1164 l 374 1200 l 193 1200 l 193 1174 b 422 1000 193 1060 285 1000 z m 800 0 l 800 235 l 310 235 l 310 350 l 779 350 l 779 583 l 310 583 l 310 696 l 800 696 l 800 931 l 49 931 l 49 0 z "},"Ě":{"ha":838,"x_min":0,"x_max":0,"o":"m 482 1194 l 433 1128 l 415 1128 l 367 1194 l 114 1194 l 114 1188 l 267 1014 l 582 1014 l 733 1188 l 733 1194 z m 800 0 l 800 235 l 310 235 l 310 350 l 779 350 l 779 583 l 310 583 l 310 696 l 800 696 l 800 931 l 49 931 l 49 0 z "},"Ê":{"ha":838,"x_min":0,"x_max":0,"o":"m 365 1014 l 414 1081 l 432 1081 l 481 1014 l 733 1014 l 733 1021 l 581 1194 l 265 1194 l 114 1021 l 114 1014 z m 800 0 l 800 235 l 310 235 l 310 350 l 779 350 l 779 583 l 310 583 l 310 696 l 800 696 l 800 931 l 49 931 l 49 0 z "},"Ë":{"ha":838,"x_min":0,"x_max":0,"o":"m 711 1014 l 711 1207 l 464 1207 l 464 1014 z m 382 1014 l 382 1207 l 136 1207 l 136 1014 z m 800 0 l 800 235 l 310 235 l 310 350 l 779 350 l 779 583 l 310 583 l 310 696 l 800 696 l 800 931 l 49 931 l 49 0 z "},"Ė":{"ha":838,"x_min":0,"x_max":0,"o":"m 554 1014 l 554 1207 l 293 1207 l 293 1014 z m 800 0 l 800 235 l 310 235 l 310 350 l 779 350 l 779 583 l 310 583 l 310 696 l 800 696 l 800 931 l 49 931 l 49 0 z "},"È":{"ha":838,"x_min":0,"x_max":0,"o":"m 557 1014 l 557 1021 l 394 1200 l 35 1200 l 35 1193 l 286 1014 z m 800 0 l 800 235 l 310 235 l 310 350 l 779 350 l 779 583 l 310 583 l 310 696 l 800 696 l 800 931 l 49 931 l 49 0 z "},"Ē":{"ha":838,"x_min":0,"x_max":0,"o":"m 656 1018 l 656 1190 l 190 1190 l 190 1018 z m 800 0 l 800 235 l 310 235 l 310 350 l 779 350 l 779 583 l 310 583 l 310 696 l 800 696 l 800 931 l 49 931 l 49 0 z "},"Ę":{"ha":838,"x_min":0,"x_max":0,"o":"m 779 350 l 779 583 l 310 583 l 310 696 l 800 696 l 800 931 l 49 931 l 49 0 l 629 0 l 599 -35 b 532 -164 561 -76 532 -119 b 651 -260 532 -231 575 -260 l 818 -260 l 818 -107 l 743 -107 b 729 -96 735 -107 729 -104 b 738 -79 729 -89 732 -86 l 800 0 l 800 235 l 310 235 l 310 350 z "},"Ẽ":{"ha":838,"x_min":0,"x_max":0,"o":"m 324 996 l 324 1026 b 344 1054 324 1042 328 1054 b 372 1047 351 1054 361 1051 l 454 1015 b 572 988 493 1000 532 988 b 696 1121 669 988 696 1057 l 696 1218 l 522 1218 l 522 1193 b 501 1161 522 1169 517 1161 b 453 1175 490 1161 475 1167 l 393 1200 b 290 1226 356 1215 328 1226 b 150 1078 174 1226 150 1143 l 150 996 z m 800 0 l 800 235 l 310 235 l 310 350 l 779 350 l 779 583 l 310 583 l 310 696 l 800 696 l 800 931 l 49 931 l 49 0 z "},"Ğ":{"ha":978,"x_min":0,"x_max":0,"o":"m 488 1000 b 718 1174 626 1000 718 1060 l 718 1200 l 538 1200 l 538 1188 b 489 1153 538 1164 532 1153 b 439 1188 444 1153 439 1164 l 439 1200 l 258 1200 l 258 1174 b 488 1000 258 1060 350 1000 z m 426 -14 b 683 131 597 -14 656 63 l 696 131 l 696 0 l 940 0 l 940 501 l 468 501 l 468 306 l 688 306 b 514 226 683 249 649 226 b 308 465 358 226 308 258 b 490 690 308 653 353 690 b 660 576 624 690 660 661 l 660 572 l 939 572 l 939 582 b 508 944 939 800 799 944 b 28 465 197 944 28 756 b 426 -14 28 165 164 -14 z "},"Ĝ":{"ha":978,"x_min":0,"x_max":0,"o":"m 431 1014 l 479 1081 l 497 1081 l 546 1014 l 799 1014 l 799 1021 l 646 1194 l 331 1194 l 179 1021 l 179 1014 z m 426 -14 b 683 131 597 -14 656 63 l 696 131 l 696 0 l 940 0 l 940 501 l 468 501 l 468 306 l 688 306 b 514 226 683 249 649 226 b 308 465 358 226 308 258 b 490 690 308 653 353 690 b 660 576 624 690 660 661 l 660 572 l 939 572 l 939 582 b 508 944 939 800 799 944 b 28 465 197 944 28 756 b 426 -14 28 165 164 -14 z "},"Ģ":{"ha":978,"x_min":0,"x_max":0,"o":"m 426 -14 b 683 131 597 -14 656 63 l 696 131 l 696 0 l 940 0 l 940 501 l 468 501 l 468 306 l 688 306 b 514 226 683 249 649 226 b 308 465 358 226 308 258 b 490 690 308 653 353 690 b 660 576 624 690 660 661 l 660 572 l 939 572 l 939 582 b 508 944 939 800 799 944 b 28 465 197 944 28 756 b 426 -14 28 165 164 -14 z m 440 -278 l 636 -104 l 636 -97 l 306 -97 l 194 -271 l 194 -278 z "},"Ġ":{"ha":978,"x_min":0,"x_max":0,"o":"m 619 1014 l 619 1207 l 358 1207 l 358 1014 z m 426 -14 b 683 131 597 -14 656 63 l 696 131 l 696 0 l 940 0 l 940 501 l 468 501 l 468 306 l 688 306 b 514 226 683 249 649 226 b 308 465 358 226 308 258 b 490 690 308 653 353 690 b 660 576 624 690 660 661 l 660 572 l 939 572 l 939 582 b 508 944 939 800 799 944 b 28 465 197 944 28 756 b 426 -14 28 165 164 -14 z "},"Ħ":{"ha":1008,"x_min":0,"x_max":0,"o":"m 329 0 l 329 350 l 678 350 l 678 0 l 939 0 l 939 642 l 1008 642 l 1008 849 l 939 849 l 939 931 l 678 931 l 678 849 l 329 849 l 329 931 l 68 931 l 68 849 l 0 849 l 0 642 l 68 642 l 68 0 z m 329 585 l 329 642 l 678 642 l 678 585 z "},"Ĥ":{"ha":968,"x_min":0,"x_max":0,"o":"m 426 1014 l 475 1081 l 493 1081 l 542 1014 l 794 1014 l 794 1021 l 642 1194 l 326 1194 l 175 1021 l 175 1014 z m 310 0 l 310 350 l 658 350 l 658 0 l 919 0 l 919 931 l 658 931 l 658 585 l 310 585 l 310 931 l 49 931 l 49 0 z "},"Í":{"ha":358,"x_min":0,"x_max":0,"o":"m 328 1014 l 579 1193 l 579 1200 l 221 1200 l 58 1021 l 58 1014 z m 310 0 l 310 931 l 49 931 l 49 0 z "},"Î":{"ha":358,"x_min":0,"x_max":0,"o":"m 121 1014 l 169 1081 l 188 1081 l 236 1014 l 489 1014 l 489 1021 l 336 1194 l 21 1194 l -131 1021 l -131 1014 z m 310 0 l 310 931 l 49 931 l 49 0 z "},"Ï":{"ha":358,"x_min":0,"x_max":0,"o":"m 467 1014 l 467 1207 l 219 1207 l 219 1014 z m 138 1014 l 138 1207 l -108 1207 l -108 1014 z m 310 0 l 310 931 l 49 931 l 49 0 z "},"Ì":{"ha":358,"x_min":0,"x_max":0,"o":"m 313 1014 l 313 1021 l 150 1200 l -210 1200 l -210 1193 l 42 1014 z m 310 0 l 310 931 l 49 931 l 49 0 z "},"Ĭ":{"ha":358,"x_min":0,"x_max":0,"o":"m 178 1000 b 408 1174 317 1000 408 1060 l 408 1200 l 228 1200 l 228 1188 b 179 1153 228 1164 222 1153 b 129 1188 135 1153 129 1164 l 129 1200 l -51 1200 l -51 1174 b 178 1000 -51 1060 40 1000 z m 310 0 l 310 931 l 49 931 l 49 0 z "},"İ":{"ha":358,"x_min":0,"x_max":0,"o":"m 310 1014 l 310 1207 l 49 1207 l 49 1014 z m 310 0 l 310 931 l 49 931 l 49 0 z "},"Ī":{"ha":358,"x_min":0,"x_max":0,"o":"m 411 1018 l 411 1190 l -54 1190 l -54 1018 z m 310 0 l 310 931 l 49 931 l 49 0 z "},"Į":{"ha":358,"x_min":0,"x_max":0,"o":"m 328 -260 l 328 -107 l 253 -107 b 239 -96 244 -107 239 -104 b 247 -79 239 -89 242 -86 l 310 0 l 310 931 l 49 931 l 49 0 l 139 0 l 108 -35 b 42 -164 71 -76 42 -119 b 161 -260 42 -231 85 -260 z "},"Ĩ":{"ha":358,"x_min":0,"x_max":0,"o":"m 79 996 l 79 1026 b 100 1054 79 1042 83 1054 b 128 1047 107 1054 117 1051 l 210 1015 b 328 988 249 1000 288 988 b 451 1121 425 988 451 1057 l 451 1218 l 278 1218 l 278 1193 b 257 1161 278 1169 272 1161 b 208 1175 246 1161 231 1167 l 149 1200 b 46 1226 111 1215 83 1226 b -94 1078 -71 1226 -94 1143 l -94 996 z m 310 0 l 310 931 l 49 931 l 49 0 z "},"Ĵ":{"ha":832,"x_min":0,"x_max":0,"o":"m 592 1014 l 640 1081 l 658 1081 l 707 1014 l 960 1014 l 960 1021 l 807 1194 l 492 1194 l 340 1021 l 340 1014 z m 407 -14 b 789 375 675 -14 789 122 l 789 931 l 510 931 l 510 343 b 397 240 510 261 492 240 b 285 343 304 240 285 261 l 285 393 l 7 393 l 7 338 b 407 -14 7 108 128 -14 z "},"Ĳ":{"ha":1176,"x_min":0,"x_max":0,"o":"m 310 0 l 310 931 l 49 931 l 49 0 z m 751 -14 b 1133 375 1019 -14 1133 122 l 1133 931 l 854 931 l 854 343 b 742 240 854 261 836 240 b 629 343 649 240 629 261 l 629 393 l 351 393 l 351 338 b 751 -14 351 108 472 -14 z "},"Ķ":{"ha":944,"x_min":0,"x_max":0,"o":"m 310 0 l 310 331 l 482 331 l 653 0 l 953 0 l 696 469 l 958 931 l 663 931 l 479 585 l 310 585 l 310 931 l 49 931 l 49 0 z m 446 -278 l 642 -104 l 642 -97 l 311 -97 l 200 -271 l 200 -278 z "},"Ĺ":{"ha":790,"x_min":0,"x_max":0,"o":"m 318 1014 l 569 1193 l 569 1200 l 211 1200 l 49 1021 l 49 1014 z m 776 0 l 776 235 l 310 235 l 310 931 l 49 931 l 49 0 z "},"Ľ":{"ha":790,"x_min":0,"x_max":0,"o":"m 776 0 l 776 235 l 310 235 l 310 931 l 49 931 l 49 0 z m 503 482 b 707 683 633 482 707 547 l 707 931 l 404 931 l 404 699 l 536 699 l 536 681 b 494 636 536 643 524 636 l 417 636 l 417 482 z "},"Ļ":{"ha":790,"x_min":0,"x_max":0,"o":"m 776 0 l 776 235 l 310 235 l 310 931 l 49 931 l 49 0 z m 369 -278 l 565 -104 l 565 -97 l 235 -97 l 124 -271 l 124 -278 z "},"Ŀ":{"ha":790,"x_min":0,"x_max":0,"o":"m 776 0 l 776 235 l 310 235 l 310 931 l 49 931 l 49 0 z m 776 369 l 776 563 l 515 563 l 515 369 z "},"Ł":{"ha":846,"x_min":0,"x_max":0,"o":"m 547 467 l 547 708 l 365 633 l 365 931 l 104 931 l 104 526 l 0 483 l 0 242 l 104 285 l 104 0 l 832 0 l 832 235 l 365 235 l 365 392 z "},"Ñ":{"ha":961,"x_min":0,"x_max":0,"o":"m 381 996 l 381 1026 b 401 1054 381 1042 385 1054 b 429 1047 408 1054 418 1051 l 511 1015 b 629 988 550 1000 589 988 b 753 1121 726 988 753 1057 l 753 1218 l 579 1218 l 579 1193 b 558 1161 579 1169 574 1161 b 510 1175 547 1161 532 1167 l 450 1200 b 347 1226 413 1215 385 1226 b 207 1078 231 1226 207 1143 l 207 996 z m 310 0 l 310 388 l 296 519 l 314 519 l 389 388 l 635 0 l 913 0 l 913 931 l 653 931 l 653 513 l 667 399 l 649 399 l 588 513 l 328 931 l 49 931 l 49 0 z "},"Ń":{"ha":961,"x_min":0,"x_max":0,"o":"m 629 1014 l 881 1193 l 881 1200 l 522 1200 l 360 1021 l 360 1014 z m 310 0 l 310 388 l 296 519 l 314 519 l 389 388 l 635 0 l 913 0 l 913 931 l 653 931 l 653 513 l 667 399 l 649 399 l 588 513 l 328 931 l 49 931 l 49 0 z "},"Ň":{"ha":961,"x_min":0,"x_max":0,"o":"m 539 1194 l 490 1128 l 472 1128 l 424 1194 l 171 1194 l 171 1188 l 324 1014 l 639 1014 l 790 1188 l 790 1194 z m 310 0 l 310 388 l 296 519 l 314 519 l 389 388 l 635 0 l 913 0 l 913 931 l 653 931 l 653 513 l 667 399 l 649 399 l 588 513 l 328 931 l 49 931 l 49 0 z "},"Ņ":{"ha":961,"x_min":0,"x_max":0,"o":"m 310 0 l 310 388 l 296 519 l 314 519 l 389 388 l 635 0 l 913 0 l 913 931 l 653 931 l 653 513 l 667 399 l 649 399 l 588 513 l 328 931 l 49 931 l 49 0 z m 438 -278 l 633 -104 l 633 -97 l 303 -97 l 192 -271 l 192 -278 z "},"Ŋ":{"ha":979,"x_min":0,"x_max":0,"o":"m 563 -236 b 921 104 781 -236 921 -161 l 921 931 l 661 931 l 661 444 l 643 444 l 336 931 l 57 931 l 57 0 l 318 0 l 318 485 l 336 485 l 656 13 b 618 0 650 3 639 0 l 511 0 l 511 -236 z "},"Ó":{"ha":990,"x_min":0,"x_max":0,"o":"m 644 1014 l 896 1193 l 896 1200 l 538 1200 l 375 1021 l 375 1014 z m 496 -14 b 963 465 790 -14 963 175 b 496 944 963 756 790 944 b 28 465 200 944 28 756 b 496 -14 28 175 200 -14 z m 496 240 b 308 465 351 240 308 286 b 496 690 308 644 351 690 b 682 465 639 690 682 644 b 496 240 682 286 639 240 z "},"Ŏ":{"ha":990,"x_min":0,"x_max":0,"o":"m 494 1000 b 725 1174 633 1000 725 1060 l 725 1200 l 544 1200 l 544 1188 b 496 1153 544 1164 539 1153 b 446 1188 451 1153 446 1164 l 446 1200 l 265 1200 l 265 1174 b 494 1000 265 1060 357 1000 z m 496 -14 b 963 465 790 -14 963 175 b 496 944 963 756 790 944 b 28 465 200 944 28 756 b 496 -14 28 175 200 -14 z m 496 240 b 308 465 351 240 308 286 b 496 690 308 644 351 690 b 682 465 639 690 682 644 b 496 240 682 286 639 240 z "},"Ô":{"ha":990,"x_min":0,"x_max":0,"o":"m 438 1014 l 486 1081 l 504 1081 l 553 1014 l 806 1014 l 806 1021 l 653 1194 l 338 1194 l 186 1021 l 186 1014 z m 496 -14 b 963 465 790 -14 963 175 b 496 944 963 756 790 944 b 28 465 200 944 28 756 b 496 -14 28 175 200 -14 z m 496 240 b 308 465 351 240 308 286 b 496 690 308 644 351 690 b 682 465 639 690 682 644 b 496 240 682 286 639 240 z "},"Ö":{"ha":990,"x_min":0,"x_max":0,"o":"m 783 1014 l 783 1207 l 536 1207 l 536 1014 z m 454 1014 l 454 1207 l 208 1207 l 208 1014 z m 496 -14 b 963 465 790 -14 963 175 b 496 944 963 756 790 944 b 28 465 200 944 28 756 b 496 -14 28 175 200 -14 z m 496 240 b 308 465 351 240 308 286 b 496 690 308 644 351 690 b 682 465 639 690 682 644 b 496 240 682 286 639 240 z "},"Ò":{"ha":990,"x_min":0,"x_max":0,"o":"m 629 1014 l 629 1021 l 467 1200 l 107 1200 l 107 1193 l 358 1014 z m 496 -14 b 963 465 790 -14 963 175 b 496 944 963 756 790 944 b 28 465 200 944 28 756 b 496 -14 28 175 200 -14 z m 496 240 b 308 465 351 240 308 286 b 496 690 308 644 351 690 b 682 465 639 690 682 644 b 496 240 682 286 639 240 z "},"Ő":{"ha":990,"x_min":0,"x_max":0,"o":"m 729 1014 l 868 1193 l 868 1200 l 592 1200 l 504 1021 l 504 1014 z m 401 1014 l 539 1193 l 539 1200 l 263 1200 l 176 1021 l 176 1014 z m 496 -14 b 963 465 790 -14 963 175 b 496 944 963 756 790 944 b 28 465 200 944 28 756 b 496 -14 28 175 200 -14 z m 496 240 b 308 465 351 240 308 286 b 496 690 308 644 351 690 b 682 465 639 690 682 644 b 496 240 682 286 639 240 z "},"Ō":{"ha":990,"x_min":0,"x_max":0,"o":"m 728 1018 l 728 1190 l 263 1190 l 263 1018 z m 496 -14 b 963 465 790 -14 963 175 b 496 944 963 756 790 944 b 28 465 200 944 28 756 b 496 -14 28 175 200 -14 z m 496 240 b 308 465 351 240 308 286 b 496 690 308 644 351 690 b 682 465 639 690 682 644 b 496 240 682 286 639 240 z "},"Ø":{"ha":990,"x_min":0,"x_max":0,"o":"m 496 -14 b 963 465 790 -14 963 175 b 901 728 963 567 942 656 l 1008 831 l 876 958 l 779 865 b 496 944 706 917 610 944 b 28 465 200 944 28 756 b 89 203 28 364 49 275 l -18 100 l 114 -29 l 213 65 b 496 -14 286 14 382 -14 z m 308 465 b 496 690 308 644 351 690 b 586 681 532 690 563 688 l 310 414 b 308 465 308 431 308 447 z m 496 240 b 404 250 460 240 429 243 l 681 515 b 682 465 682 500 682 483 b 496 240 682 286 639 240 z "},"Ǿ":{"ha":990,"x_min":0,"x_max":0,"o":"m 599 1014 l 850 1193 l 850 1200 l 492 1200 l 329 1021 l 329 1014 z m 496 -14 b 963 465 790 -14 963 175 b 901 728 963 567 942 656 l 1008 831 l 876 958 l 779 865 b 496 944 706 917 610 944 b 28 465 200 944 28 756 b 89 203 28 364 49 275 l -18 100 l 114 -29 l 213 65 b 496 -14 286 14 382 -14 z m 308 465 b 496 690 308 644 351 690 b 586 681 532 690 563 688 l 310 414 b 308 465 308 431 308 447 z m 496 240 b 404 250 460 240 429 243 l 681 515 b 682 465 682 500 682 483 b 496 240 682 286 639 240 z "},"Õ":{"ha":990,"x_min":0,"x_max":0,"o":"m 396 996 l 396 1026 b 417 1054 396 1042 400 1054 b 444 1047 424 1054 433 1051 l 526 1015 b 644 988 565 1000 604 988 b 768 1121 742 988 768 1057 l 768 1218 l 594 1218 l 594 1193 b 574 1161 594 1169 589 1161 b 525 1175 563 1161 547 1167 l 465 1200 b 363 1226 428 1215 400 1226 b 222 1078 246 1226 222 1143 l 222 996 z m 496 -14 b 963 465 790 -14 963 175 b 496 944 963 756 790 944 b 28 465 200 944 28 756 b 496 -14 28 175 200 -14 z m 496 240 b 308 465 351 240 308 286 b 496 690 308 644 351 690 b 682 465 639 690 682 644 b 496 240 682 286 639 240 z "},"Þ":{"ha":861,"x_min":0,"x_max":0,"o":"m 310 0 l 310 124 l 489 124 b 854 465 711 124 854 244 b 489 808 854 679 711 808 l 310 808 l 310 931 l 49 931 l 49 0 z m 479 574 b 593 465 568 574 593 557 b 479 357 593 374 568 357 l 310 357 l 310 574 z "},"Ŕ":{"ha":914,"x_min":0,"x_max":0,"o":"m 590 1014 l 842 1193 l 842 1200 l 483 1200 l 321 1021 l 321 1014 z m 310 0 l 310 297 l 374 297 b 518 193 461 297 479 274 l 610 0 l 914 0 l 817 211 b 649 375 781 290 743 350 l 649 388 b 863 644 806 406 863 497 b 517 931 863 831 751 931 l 49 931 l 49 0 z m 310 696 l 507 696 b 601 608 581 696 601 676 b 507 514 601 535 581 514 l 310 514 z "},"Ř":{"ha":914,"x_min":0,"x_max":0,"o":"m 500 1194 l 451 1128 l 433 1128 l 385 1194 l 132 1194 l 132 1188 l 285 1014 l 600 1014 l 751 1188 l 751 1194 z m 310 0 l 310 297 l 374 297 b 518 193 461 297 479 274 l 610 0 l 914 0 l 817 211 b 649 375 781 290 743 350 l 649 388 b 863 644 806 406 863 497 b 517 931 863 831 751 931 l 49 931 l 49 0 z m 310 696 l 507 696 b 601 608 581 696 601 676 b 507 514 601 535 581 514 l 310 514 z "},"Ŗ":{"ha":914,"x_min":0,"x_max":0,"o":"m 310 0 l 310 297 l 374 297 b 518 193 461 297 479 274 l 610 0 l 914 0 l 817 211 b 649 375 781 290 743 350 l 649 388 b 863 644 806 406 863 497 b 517 931 863 831 751 931 l 49 931 l 49 0 z m 310 696 l 507 696 b 601 608 581 696 601 676 b 507 514 601 535 581 514 l 310 514 z m 408 -278 l 604 -104 l 604 -97 l 274 -97 l 163 -271 l 163 -278 z "},"Ś":{"ha":864,"x_min":0,"x_max":0,"o":"m 576 1014 l 828 1193 l 828 1200 l 469 1200 l 307 1021 l 307 1014 z m 446 -14 b 836 289 725 -14 836 126 b 563 571 836 433 760 536 l 360 607 b 288 658 306 617 288 629 b 411 710 288 693 313 710 b 554 633 528 710 554 688 l 554 617 l 811 617 l 811 640 b 428 944 811 814 688 944 b 28 649 154 944 28 814 b 294 375 28 504 106 404 l 497 343 b 575 276 561 333 575 319 b 456 221 575 236 554 221 b 303 313 331 221 303 236 l 303 324 l 46 324 l 46 306 b 446 -14 46 111 179 -14 z "},"Š":{"ha":864,"x_min":0,"x_max":0,"o":"m 486 1194 l 438 1128 l 419 1128 l 371 1194 l 118 1194 l 118 1188 l 271 1014 l 586 1014 l 738 1188 l 738 1194 z m 446 -14 b 836 289 725 -14 836 126 b 563 571 836 433 760 536 l 360 607 b 288 658 306 617 288 629 b 411 710 288 693 313 710 b 554 633 528 710 554 688 l 554 617 l 811 617 l 811 640 b 428 944 811 814 688 944 b 28 649 154 944 28 814 b 294 375 28 504 106 404 l 497 343 b 575 276 561 333 575 319 b 456 221 575 236 554 221 b 303 313 331 221 303 236 l 303 324 l 46 324 l 46 306 b 446 -14 46 111 179 -14 z "},"Ş":{"ha":864,"x_min":0,"x_max":0,"o":"m 508 -335 b 685 -187 622 -335 685 -276 b 519 -50 685 -104 625 -50 l 514 -50 l 514 -11 b 836 289 743 10 836 140 b 563 571 836 433 760 536 l 360 607 b 288 658 306 617 288 629 b 411 710 288 693 313 710 b 554 633 528 710 554 688 l 554 617 l 811 617 l 811 640 b 428 944 811 814 688 944 b 28 649 154 944 28 814 b 294 375 28 504 106 404 l 497 343 b 575 276 561 333 575 319 b 456 221 575 236 554 221 b 303 313 331 221 303 236 l 303 324 l 46 324 l 46 306 b 382 -11 46 128 158 7 l 382 -168 l 515 -168 b 536 -185 531 -168 536 -172 b 515 -201 536 -197 531 -201 l 343 -201 l 343 -335 z "},"Ŝ":{"ha":864,"x_min":0,"x_max":0,"o":"m 369 1014 l 418 1081 l 436 1081 l 485 1014 l 738 1014 l 738 1021 l 585 1194 l 269 1194 l 118 1021 l 118 1014 z m 446 -14 b 836 289 725 -14 836 126 b 563 571 836 433 760 536 l 360 607 b 288 658 306 617 288 629 b 411 710 288 693 313 710 b 554 633 528 710 554 688 l 554 617 l 811 617 l 811 640 b 428 944 811 814 688 944 b 28 649 154 944 28 814 b 294 375 28 504 106 404 l 497 343 b 575 276 561 333 575 319 b 456 221 575 236 554 221 b 303 313 331 221 303 236 l 303 324 l 46 324 l 46 306 b 446 -14 46 111 179 -14 z "},"Ș":{"ha":864,"x_min":0,"x_max":0,"o":"m 446 -14 b 836 289 725 -14 836 126 b 563 571 836 433 760 536 l 360 607 b 288 658 306 617 288 629 b 411 710 288 693 313 710 b 554 633 528 710 554 688 l 554 617 l 811 617 l 811 640 b 428 944 811 814 688 944 b 28 649 154 944 28 814 b 294 375 28 504 106 404 l 497 343 b 575 276 561 333 575 319 b 456 221 575 236 554 221 b 303 313 331 221 303 236 l 303 324 l 46 324 l 46 306 b 446 -14 46 111 179 -14 z m 417 -278 l 613 -104 l 613 -97 l 282 -97 l 171 -271 l 171 -278 z "},"Ŧ":{"ha":861,"x_min":0,"x_max":0,"o":"m 561 0 l 561 318 l 786 318 l 786 553 l 561 553 l 561 696 l 847 696 l 847 931 l 14 931 l 14 696 l 300 696 l 300 553 l 74 553 l 74 318 l 300 318 l 300 0 z "},"Ť":{"ha":861,"x_min":0,"x_max":0,"o":"m 489 1194 l 440 1128 l 422 1128 l 374 1194 l 121 1194 l 121 1188 l 274 1014 l 589 1014 l 740 1188 l 740 1194 z m 561 0 l 561 696 l 847 696 l 847 931 l 14 931 l 14 696 l 300 696 l 300 0 z "},"Ţ":{"ha":861,"x_min":0,"x_max":0,"o":"m 561 0 l 561 696 l 847 696 l 847 931 l 14 931 l 14 696 l 300 696 l 300 0 l 353 0 l 353 -168 l 486 -168 b 507 -185 501 -168 507 -172 b 486 -201 507 -197 501 -201 l 314 -201 l 314 -335 l 479 -335 b 656 -187 593 -335 656 -276 b 490 -50 656 -104 596 -50 l 485 -50 l 485 0 z "},"Ț":{"ha":861,"x_min":0,"x_max":0,"o":"m 561 0 l 561 696 l 847 696 l 847 931 l 14 931 l 14 696 l 300 696 l 300 0 z m 388 -278 l 583 -104 l 583 -97 l 253 -97 l 142 -271 l 142 -278 z "},"Ú":{"ha":922,"x_min":0,"x_max":0,"o":"m 610 1014 l 861 1193 l 861 1200 l 503 1200 l 340 1021 l 340 1014 z m 461 -14 b 881 360 749 -14 881 133 l 881 931 l 619 931 l 619 374 b 461 240 619 269 594 240 b 303 374 328 240 303 269 l 303 931 l 42 931 l 42 360 b 461 -14 42 133 174 -14 z "},"Û":{"ha":922,"x_min":0,"x_max":0,"o":"m 403 1014 l 451 1081 l 469 1081 l 518 1014 l 771 1014 l 771 1021 l 618 1194 l 303 1194 l 151 1021 l 151 1014 z m 461 -14 b 881 360 749 -14 881 133 l 881 931 l 619 931 l 619 374 b 461 240 619 269 594 240 b 303 374 328 240 303 269 l 303 931 l 42 931 l 42 360 b 461 -14 42 133 174 -14 z "},"Ü":{"ha":922,"x_min":0,"x_max":0,"o":"m 749 1014 l 749 1207 l 501 1207 l 501 1014 z m 419 1014 l 419 1207 l 174 1207 l 174 1014 z m 461 -14 b 881 360 749 -14 881 133 l 881 931 l 619 931 l 619 374 b 461 240 619 269 594 240 b 303 374 328 240 303 269 l 303 931 l 42 931 l 42 360 b 461 -14 42 133 174 -14 z "},"Ù":{"ha":922,"x_min":0,"x_max":0,"o":"m 594 1014 l 594 1021 l 432 1200 l 72 1200 l 72 1193 l 324 1014 z m 461 -14 b 881 360 749 -14 881 133 l 881 931 l 619 931 l 619 374 b 461 240 619 269 594 240 b 303 374 328 240 303 269 l 303 931 l 42 931 l 42 360 b 461 -14 42 133 174 -14 z "},"Ŭ":{"ha":922,"x_min":0,"x_max":0,"o":"m 460 1000 b 690 1174 599 1000 690 1060 l 690 1200 l 510 1200 l 510 1188 b 461 1153 510 1164 504 1153 b 411 1188 417 1153 411 1164 l 411 1200 l 231 1200 l 231 1174 b 460 1000 231 1060 322 1000 z m 461 -14 b 881 360 749 -14 881 133 l 881 931 l 619 931 l 619 374 b 461 240 619 269 594 240 b 303 374 328 240 303 269 l 303 931 l 42 931 l 42 360 b 461 -14 42 133 174 -14 z "},"Ű":{"ha":922,"x_min":0,"x_max":0,"o":"m 694 1014 l 833 1193 l 833 1200 l 557 1200 l 469 1021 l 469 1014 z m 367 1014 l 504 1193 l 504 1200 l 228 1200 l 142 1021 l 142 1014 z m 461 -14 b 881 360 749 -14 881 133 l 881 931 l 619 931 l 619 374 b 461 240 619 269 594 240 b 303 374 328 240 303 269 l 303 931 l 42 931 l 42 360 b 461 -14 42 133 174 -14 z "},"Ū":{"ha":922,"x_min":0,"x_max":0,"o":"m 693 1018 l 693 1190 l 228 1190 l 228 1018 z m 461 -14 b 881 360 749 -14 881 133 l 881 931 l 619 931 l 619 374 b 461 240 619 269 594 240 b 303 374 328 240 303 269 l 303 931 l 42 931 l 42 360 b 461 -14 42 133 174 -14 z "},"Ų":{"ha":922,"x_min":0,"x_max":0,"o":"m 604 -260 l 604 -107 l 529 -107 b 515 -96 521 -107 515 -104 b 524 -79 515 -89 518 -86 l 583 -4 b 881 360 786 33 881 168 l 881 931 l 619 931 l 619 374 b 461 240 619 269 594 240 b 303 374 328 240 303 269 l 303 931 l 42 931 l 42 360 b 404 -12 42 149 157 7 l 385 -35 b 318 -164 347 -76 318 -119 b 438 -260 318 -231 361 -260 z "},"Ů":{"ha":922,"x_min":0,"x_max":0,"o":"m 461 992 b 610 1114 549 992 610 1033 b 461 1236 610 1194 549 1236 b 313 1114 372 1236 313 1194 b 461 992 313 1033 372 992 z m 461 1093 b 419 1114 428 1093 419 1099 b 461 1135 419 1129 428 1135 b 503 1114 494 1135 503 1129 b 461 1093 503 1099 494 1093 z m 461 -14 b 881 360 749 -14 881 133 l 881 931 l 619 931 l 619 374 b 461 240 619 269 594 240 b 303 374 328 240 303 269 l 303 931 l 42 931 l 42 360 b 461 -14 42 133 174 -14 z "},"Ũ":{"ha":922,"x_min":0,"x_max":0,"o":"m 361 996 l 361 1026 b 382 1054 361 1042 365 1054 b 410 1047 389 1054 399 1051 l 492 1015 b 610 988 531 1000 569 988 b 733 1121 707 988 733 1057 l 733 1218 l 560 1218 l 560 1193 b 539 1161 560 1169 554 1161 b 490 1175 528 1161 513 1167 l 431 1200 b 328 1226 393 1215 365 1226 b 188 1078 211 1226 188 1143 l 188 996 z m 461 -14 b 881 360 749 -14 881 133 l 881 931 l 619 931 l 619 374 b 461 240 619 269 594 240 b 303 374 328 240 303 269 l 303 931 l 42 931 l 42 360 b 461 -14 42 133 174 -14 z "},"Ẃ":{"ha":1372,"x_min":0,"x_max":0,"o":"m 835 1014 l 1086 1193 l 1086 1200 l 728 1200 l 565 1021 l 565 1014 z m 546 0 l 626 353 l 678 671 l 694 671 l 744 353 l 825 0 l 1208 0 l 1372 931 l 1089 931 l 1049 617 l 1015 233 l 997 233 l 939 617 l 875 931 l 501 931 l 433 603 l 383 233 l 365 233 l 333 603 l 289 931 l 0 931 l 163 0 z "},"Ŵ":{"ha":1372,"x_min":0,"x_max":0,"o":"m 628 1014 l 676 1081 l 694 1081 l 743 1014 l 996 1014 l 996 1021 l 843 1194 l 528 1194 l 376 1021 l 376 1014 z m 546 0 l 626 353 l 678 671 l 694 671 l 744 353 l 825 0 l 1208 0 l 1372 931 l 1089 931 l 1049 617 l 1015 233 l 997 233 l 939 617 l 875 931 l 501 931 l 433 603 l 383 233 l 365 233 l 333 603 l 289 931 l 0 931 l 163 0 z "},"Ẅ":{"ha":1372,"x_min":0,"x_max":0,"o":"m 974 1014 l 974 1207 l 726 1207 l 726 1014 z m 644 1014 l 644 1207 l 399 1207 l 399 1014 z m 546 0 l 626 353 l 678 671 l 694 671 l 744 353 l 825 0 l 1208 0 l 1372 931 l 1089 931 l 1049 617 l 1015 233 l 997 233 l 939 617 l 875 931 l 501 931 l 433 603 l 383 233 l 365 233 l 333 603 l 289 931 l 0 931 l 163 0 z "},"Ẁ":{"ha":1372,"x_min":0,"x_max":0,"o":"m 819 1014 l 819 1021 l 657 1200 l 297 1200 l 297 1193 l 549 1014 z m 546 0 l 626 353 l 678 671 l 694 671 l 744 353 l 825 0 l 1208 0 l 1372 931 l 1089 931 l 1049 617 l 1015 233 l 997 233 l 939 617 l 875 931 l 501 931 l 433 603 l 383 233 l 365 233 l 333 603 l 289 931 l 0 931 l 163 0 z "},"Ý":{"ha":961,"x_min":0,"x_max":0,"o":"m 629 1014 l 881 1193 l 881 1200 l 522 1200 l 360 1021 l 360 1014 z m 611 0 l 611 317 l 975 931 l 671 931 l 554 711 l 493 572 l 475 572 l 413 711 l 296 931 l -14 931 l 350 314 l 350 0 z "},"Ŷ":{"ha":961,"x_min":0,"x_max":0,"o":"m 422 1014 l 471 1081 l 489 1081 l 538 1014 l 790 1014 l 790 1021 l 638 1194 l 322 1194 l 171 1021 l 171 1014 z m 611 0 l 611 317 l 975 931 l 671 931 l 554 711 l 493 572 l 475 572 l 413 711 l 296 931 l -14 931 l 350 314 l 350 0 z "},"Ÿ":{"ha":961,"x_min":0,"x_max":0,"o":"m 768 1014 l 768 1207 l 521 1207 l 521 1014 z m 439 1014 l 439 1207 l 193 1207 l 193 1014 z m 611 0 l 611 317 l 975 931 l 671 931 l 554 711 l 493 572 l 475 572 l 413 711 l 296 931 l -14 931 l 350 314 l 350 0 z "},"Ỳ":{"ha":961,"x_min":0,"x_max":0,"o":"m 614 1014 l 614 1021 l 451 1200 l 92 1200 l 92 1193 l 343 1014 z m 611 0 l 611 317 l 975 931 l 671 931 l 554 711 l 493 572 l 475 572 l 413 711 l 296 931 l -14 931 l 350 314 l 350 0 z "},"Ỹ":{"ha":961,"x_min":0,"x_max":0,"o":"m 381 996 l 381 1026 b 401 1054 381 1042 385 1054 b 429 1047 408 1054 418 1051 l 511 1015 b 629 988 550 1000 589 988 b 753 1121 726 988 753 1057 l 753 1218 l 579 1218 l 579 1193 b 558 1161 579 1169 574 1161 b 510 1175 547 1161 532 1167 l 450 1200 b 347 1226 413 1215 385 1226 b 207 1078 231 1226 207 1143 l 207 996 z m 611 0 l 611 317 l 975 931 l 671 931 l 554 711 l 493 572 l 475 572 l 413 711 l 296 931 l -14 931 l 350 314 l 350 0 z "},"Ž":{"ha":856,"x_min":0,"x_max":0,"o":"m 486 1194 l 438 1128 l 419 1128 l 371 1194 l 118 1194 l 118 1188 l 271 1014 l 586 1014 l 738 1188 l 738 1194 z m 828 0 l 828 235 l 383 235 l 383 253 l 814 717 l 814 931 l 49 931 l 49 696 l 447 696 l 447 678 l 28 214 l 28 0 z "},"Ź":{"ha":856,"x_min":0,"x_max":0,"o":"m 576 1014 l 828 1193 l 828 1200 l 469 1200 l 307 1021 l 307 1014 z m 828 0 l 828 235 l 383 235 l 383 253 l 814 717 l 814 931 l 49 931 l 49 696 l 447 696 l 447 678 l 28 214 l 28 0 z "},"Ż":{"ha":856,"x_min":0,"x_max":0,"o":"m 558 1014 l 558 1207 l 297 1207 l 297 1014 z m 828 0 l 828 235 l 383 235 l 383 253 l 814 717 l 814 931 l 49 931 l 49 696 l 447 696 l 447 678 l 28 214 l 28 0 z "},"á":{"ha":757,"x_min":0,"x_max":0,"o":"m 544 778 l 792 951 l 792 958 l 432 958 l 275 785 l 275 778 z m 238 -14 b 464 86 371 -14 433 42 l 476 86 l 476 0 l 721 0 l 721 428 b 390 728 721 629 611 728 b 38 443 176 728 38 619 l 38 426 l 286 426 l 286 449 b 381 506 286 492 304 506 b 472 446 457 506 472 490 l 472 421 l 244 385 b 21 182 93 360 21 293 b 238 -14 21 51 115 -14 z m 260 206 b 299 239 260 225 271 235 l 472 268 b 324 175 468 201 425 175 b 260 206 275 175 260 181 z "},"â":{"ha":757,"x_min":0,"x_max":0,"o":"m 338 778 l 386 844 l 404 844 l 453 778 l 706 778 l 706 785 l 553 958 l 238 958 l 86 785 l 86 778 z m 238 -14 b 464 86 371 -14 433 42 l 476 86 l 476 0 l 721 0 l 721 428 b 390 728 721 629 611 728 b 38 443 176 728 38 619 l 38 426 l 286 426 l 286 449 b 381 506 286 492 304 506 b 472 446 457 506 472 490 l 472 421 l 244 385 b 21 182 93 360 21 293 b 238 -14 21 51 115 -14 z m 260 206 b 299 239 260 225 271 235 l 472 268 b 324 175 468 201 425 175 b 260 206 275 175 260 181 z "},"ä":{"ha":757,"x_min":0,"x_max":0,"o":"m 683 778 l 683 971 l 436 971 l 436 778 z m 356 778 l 356 971 l 108 971 l 108 778 z m 238 -14 b 464 86 371 -14 433 42 l 476 86 l 476 0 l 721 0 l 721 428 b 390 728 721 629 611 728 b 38 443 176 728 38 619 l 38 426 l 286 426 l 286 449 b 381 506 286 492 304 506 b 472 446 457 506 472 490 l 472 421 l 244 385 b 21 182 93 360 21 293 b 238 -14 21 51 115 -14 z m 260 206 b 299 239 260 225 271 235 l 472 268 b 324 175 468 201 425 175 b 260 206 275 175 260 181 z "},"à":{"ha":757,"x_min":0,"x_max":0,"o":"m 536 778 l 536 785 l 378 958 l 18 958 l 18 951 l 265 778 z m 238 -14 b 464 86 371 -14 433 42 l 476 86 l 476 0 l 721 0 l 721 428 b 390 728 721 629 611 728 b 38 443 176 728 38 619 l 38 426 l 286 426 l 286 449 b 381 506 286 492 304 506 b 472 446 457 506 472 490 l 472 421 l 244 385 b 21 182 93 360 21 293 b 238 -14 21 51 115 -14 z m 260 206 b 299 239 260 225 271 235 l 472 268 b 324 175 468 201 425 175 b 260 206 275 175 260 181 z "},"å":{"ha":757,"x_min":0,"x_max":0,"o":"m 396 756 b 544 878 483 756 544 797 b 396 1000 544 958 483 1000 b 247 878 307 1000 247 958 b 396 756 247 797 307 756 z m 396 857 b 354 878 363 857 354 863 b 396 899 354 893 363 899 b 438 878 429 899 438 893 b 396 857 438 863 429 857 z m 238 -14 b 464 86 371 -14 433 42 l 476 86 l 476 0 l 721 0 l 721 428 b 390 728 721 629 611 728 b 38 443 176 728 38 619 l 38 426 l 286 426 l 286 449 b 381 506 286 492 304 506 b 472 446 457 506 472 490 l 472 421 l 244 385 b 21 182 93 360 21 293 b 238 -14 21 51 115 -14 z m 260 206 b 299 239 260 225 271 235 l 472 268 b 324 175 468 201 425 175 b 260 206 275 175 260 181 z "},"ã":{"ha":757,"x_min":0,"x_max":0,"o":"m 296 763 l 296 793 b 317 821 296 808 300 821 b 344 814 324 821 332 818 l 426 782 b 544 754 465 767 504 754 b 668 888 642 754 668 824 l 668 985 l 494 985 l 494 960 b 474 928 494 936 489 928 b 425 942 463 928 447 933 l 365 967 b 263 993 328 982 300 993 b 122 844 146 993 122 910 l 122 763 z m 238 -14 b 464 86 371 -14 433 42 l 476 86 l 476 0 l 721 0 l 721 428 b 390 728 721 629 611 728 b 38 443 176 728 38 619 l 38 426 l 286 426 l 286 449 b 381 506 286 492 304 506 b 472 446 457 506 472 490 l 472 421 l 244 385 b 21 182 93 360 21 293 b 238 -14 21 51 115 -14 z m 260 206 b 299 239 260 225 271 235 l 472 268 b 324 175 468 201 425 175 b 260 206 275 175 260 181 z "},"ă":{"ha":757,"x_min":0,"x_max":0,"o":"m 394 764 b 625 938 533 764 625 824 l 625 964 l 444 964 l 444 951 b 396 917 444 928 439 917 b 346 951 351 917 346 928 l 346 964 l 165 964 l 165 938 b 394 764 165 824 257 764 z m 238 -14 b 464 86 371 -14 433 42 l 476 86 l 476 0 l 721 0 l 721 428 b 390 728 721 629 611 728 b 38 443 176 728 38 619 l 38 426 l 286 426 l 286 449 b 381 506 286 492 304 506 b 472 446 457 506 472 490 l 472 421 l 244 385 b 21 182 93 360 21 293 b 238 -14 21 51 115 -14 z m 260 206 b 299 239 260 225 271 235 l 472 268 b 324 175 468 201 425 175 b 260 206 275 175 260 181 z "},"ā":{"ha":757,"x_min":0,"x_max":0,"o":"m 628 778 l 628 950 l 163 950 l 163 778 z m 238 -14 b 464 86 371 -14 433 42 l 476 86 l 476 0 l 721 0 l 721 428 b 390 728 721 629 611 728 b 38 443 176 728 38 619 l 38 426 l 286 426 l 286 449 b 381 506 286 492 304 506 b 472 446 457 506 472 490 l 472 421 l 244 385 b 21 182 93 360 21 293 b 238 -14 21 51 115 -14 z m 260 206 b 299 239 260 225 271 235 l 472 268 b 324 175 468 201 425 175 b 260 206 275 175 260 181 z "},"ą":{"ha":757,"x_min":0,"x_max":0,"o":"m 238 -14 b 464 86 371 -14 433 42 l 476 86 l 476 0 l 550 0 l 519 -35 b 453 -164 482 -76 453 -119 b 572 -260 453 -231 496 -260 l 739 -260 l 739 -107 l 664 -107 b 650 -96 656 -107 650 -104 b 658 -79 650 -89 653 -86 l 721 0 l 721 428 b 390 728 721 629 611 728 b 38 443 176 728 38 619 l 38 426 l 286 426 l 286 449 b 381 506 286 492 304 506 b 472 446 457 506 472 490 l 472 421 l 244 385 b 21 182 93 360 21 293 b 238 -14 21 51 115 -14 z m 260 206 b 299 239 260 225 271 235 l 472 268 b 324 175 468 201 425 175 b 260 206 275 175 260 181 z "},"ç":{"ha":776,"x_min":0,"x_max":0,"o":"m 438 -335 b 614 -187 551 -335 614 -276 b 449 -50 614 -104 554 -50 l 443 -50 l 443 -12 b 749 288 626 1 749 110 l 749 318 l 488 318 l 488 296 b 392 217 488 238 457 217 b 286 357 314 217 286 242 b 392 497 286 472 314 497 b 488 418 457 497 488 476 l 488 396 l 749 396 l 749 426 b 401 728 749 617 607 728 b 28 350 163 728 28 586 b 311 -7 28 153 129 24 l 311 -168 l 444 -168 b 465 -185 460 -168 465 -172 b 444 -201 465 -197 460 -201 l 272 -201 l 272 -335 z "},"ć":{"ha":776,"x_min":0,"x_max":0,"o":"m 538 778 l 785 951 l 785 958 l 425 958 l 268 785 l 268 778 z m 401 -14 b 749 288 607 -14 749 97 l 749 318 l 488 318 l 488 296 b 392 217 488 238 457 217 b 286 357 314 217 286 242 b 392 497 286 472 314 497 b 488 418 457 497 488 476 l 488 396 l 749 396 l 749 426 b 401 728 749 617 607 728 b 28 350 163 728 28 586 b 401 -14 28 122 163 -14 z "},"č":{"ha":776,"x_min":0,"x_max":0,"o":"m 546 778 l 699 951 l 699 958 l 446 958 l 397 892 l 379 892 l 331 958 l 79 958 l 79 951 l 231 778 z m 401 -14 b 749 288 607 -14 749 97 l 749 318 l 488 318 l 488 296 b 392 217 488 238 457 217 b 286 357 314 217 286 242 b 392 497 286 472 314 497 b 488 418 457 497 488 476 l 488 396 l 749 396 l 749 426 b 401 728 749 617 607 728 b 28 350 163 728 28 586 b 401 -14 28 122 163 -14 z "},"ĉ":{"ha":776,"x_min":0,"x_max":0,"o":"m 331 778 l 379 844 l 397 844 l 446 778 l 699 778 l 699 785 l 546 958 l 231 958 l 79 785 l 79 778 z m 401 -14 b 749 288 607 -14 749 97 l 749 318 l 488 318 l 488 296 b 392 217 488 238 457 217 b 286 357 314 217 286 242 b 392 497 286 472 314 497 b 488 418 457 497 488 476 l 488 396 l 749 396 l 749 426 b 401 728 749 617 607 728 b 28 350 163 728 28 586 b 401 -14 28 122 163 -14 z "},"ċ":{"ha":776,"x_min":0,"x_max":0,"o":"m 519 778 l 519 971 l 258 971 l 258 778 z m 401 -14 b 749 288 607 -14 749 97 l 749 318 l 488 318 l 488 296 b 392 217 488 238 457 217 b 286 357 314 217 286 242 b 392 497 286 472 314 497 b 488 418 457 497 488 476 l 488 396 l 749 396 l 749 426 b 401 728 749 617 607 728 b 28 350 163 728 28 586 b 401 -14 28 122 163 -14 z "},"ď":{"ha":1190,"x_min":0,"x_max":0,"o":"m 310 -14 b 539 97 425 -14 500 31 l 547 97 l 547 0 l 790 0 l 790 931 l 531 931 l 531 619 l 518 619 b 315 728 488 685 418 728 b 28 357 126 728 28 582 b 310 -14 28 132 129 -14 z m 958 482 b 1163 683 1089 482 1163 547 l 1163 931 l 860 931 l 860 699 l 992 699 l 992 681 b 950 636 992 643 979 636 l 872 636 l 872 482 z m 288 357 b 410 501 288 453 300 501 b 531 383 492 501 531 481 l 531 332 b 410 214 531 233 492 214 b 288 357 301 214 288 261 z "},"đ":{"ha":868,"x_min":0,"x_max":0,"o":"m 329 -14 b 543 90 424 -14 499 14 l 556 90 l 556 0 l 799 0 l 799 679 l 868 679 l 868 860 l 799 860 l 799 931 l 539 931 l 539 860 l 281 860 l 281 679 l 539 679 l 539 540 l 526 540 b 328 631 501 585 442 631 b 36 308 135 631 36 506 b 329 -14 36 113 136 -14 z m 296 308 b 415 411 296 364 310 411 b 539 321 504 411 539 390 l 539 297 b 417 207 539 226 504 207 b 296 308 311 207 296 254 z "},"ð":{"ha":993,"x_min":0,"x_max":0,"o":"m 529 -14 b 954 368 822 -14 954 128 b 793 781 954 522 882 669 l 929 817 l 894 931 l 701 879 b 639 931 681 899 660 917 l 286 931 b 435 808 339 890 389 849 l 282 768 l 317 654 l 538 713 b 693 553 601 649 654 593 l 688 544 b 444 615 633 581 568 615 b 135 321 267 615 135 519 b 529 -14 135 111 265 -14 z m 547 240 b 413 313 439 240 413 258 b 544 390 413 374 439 390 b 678 311 654 390 678 375 b 547 240 678 256 654 240 z "},"é":{"ha":772,"x_min":0,"x_max":0,"o":"m 535 778 l 782 951 l 782 958 l 422 958 l 265 785 l 265 778 z m 390 -14 b 736 233 603 -14 736 89 l 736 250 l 478 250 l 478 247 b 394 203 478 215 457 203 b 271 297 299 203 275 221 l 733 297 b 744 403 738 321 744 364 b 399 728 744 593 629 728 b 28 350 161 728 28 586 b 390 -14 28 122 158 -14 z m 385 522 b 496 439 471 522 494 485 l 271 439 b 385 522 275 497 304 522 z "},"ĕ":{"ha":772,"x_min":0,"x_max":0,"o":"m 385 764 b 615 938 524 764 615 824 l 615 964 l 435 964 l 435 951 b 386 917 435 928 429 917 b 336 951 342 917 336 928 l 336 964 l 156 964 l 156 938 b 385 764 156 824 247 764 z m 390 -14 b 736 233 603 -14 736 89 l 736 250 l 478 250 l 478 247 b 394 203 478 215 457 203 b 271 297 299 203 275 221 l 733 297 b 744 403 738 321 744 364 b 399 728 744 593 629 728 b 28 350 161 728 28 586 b 390 -14 28 122 158 -14 z m 385 522 b 496 439 471 522 494 485 l 271 439 b 385 522 275 497 304 522 z "},"ě":{"ha":772,"x_min":0,"x_max":0,"o":"m 543 778 l 696 951 l 696 958 l 443 958 l 394 892 l 376 892 l 328 958 l 76 958 l 76 951 l 228 778 z m 390 -14 b 736 233 603 -14 736 89 l 736 250 l 478 250 l 478 247 b 394 203 478 215 457 203 b 271 297 299 203 275 221 l 733 297 b 744 403 738 321 744 364 b 399 728 744 593 629 728 b 28 350 161 728 28 586 b 390 -14 28 122 158 -14 z m 385 522 b 496 439 471 522 494 485 l 271 439 b 385 522 275 497 304 522 z "},"ê":{"ha":772,"x_min":0,"x_max":0,"o":"m 328 778 l 376 844 l 394 844 l 443 778 l 696 778 l 696 785 l 543 958 l 228 958 l 76 785 l 76 778 z m 390 -14 b 736 233 603 -14 736 89 l 736 250 l 478 250 l 478 247 b 394 203 478 215 457 203 b 271 297 299 203 275 221 l 733 297 b 744 403 738 321 744 364 b 399 728 744 593 629 728 b 28 350 161 728 28 586 b 390 -14 28 122 158 -14 z m 385 522 b 496 439 471 522 494 485 l 271 439 b 385 522 275 497 304 522 z "},"ë":{"ha":772,"x_min":0,"x_max":0,"o":"m 674 778 l 674 971 l 426 971 l 426 778 z m 346 778 l 346 971 l 99 971 l 99 778 z m 390 -14 b 736 233 603 -14 736 89 l 736 250 l 478 250 l 478 247 b 394 203 478 215 457 203 b 271 297 299 203 275 221 l 733 297 b 744 403 738 321 744 364 b 399 728 744 593 629 728 b 28 350 161 728 28 586 b 390 -14 28 122 158 -14 z m 385 522 b 496 439 471 522 494 485 l 271 439 b 385 522 275 497 304 522 z "},"ė":{"ha":772,"x_min":0,"x_max":0,"o":"m 517 778 l 517 971 l 256 971 l 256 778 z m 390 -14 b 736 233 603 -14 736 89 l 736 250 l 478 250 l 478 247 b 394 203 478 215 457 203 b 271 297 299 203 275 221 l 733 297 b 744 403 738 321 744 364 b 399 728 744 593 629 728 b 28 350 161 728 28 586 b 390 -14 28 122 158 -14 z m 385 522 b 496 439 471 522 494 485 l 271 439 b 385 522 275 497 304 522 z "},"è":{"ha":772,"x_min":0,"x_max":0,"o":"m 526 778 l 526 785 l 368 958 l 8 958 l 8 951 l 256 778 z m 390 -14 b 736 233 603 -14 736 89 l 736 250 l 478 250 l 478 247 b 394 203 478 215 457 203 b 271 297 299 203 275 221 l 733 297 b 744 403 738 321 744 364 b 399 728 744 593 629 728 b 28 350 161 728 28 586 b 390 -14 28 122 158 -14 z m 385 522 b 496 439 471 522 494 485 l 271 439 b 385 522 275 497 304 522 z "},"ē":{"ha":772,"x_min":0,"x_max":0,"o":"m 618 778 l 618 950 l 153 950 l 153 778 z m 390 -14 b 736 233 603 -14 736 89 l 736 250 l 478 250 l 478 247 b 394 203 478 215 457 203 b 271 297 299 203 275 221 l 733 297 b 744 403 738 321 744 364 b 399 728 744 593 629 728 b 28 350 161 728 28 586 b 390 -14 28 122 158 -14 z m 385 522 b 496 439 471 522 494 485 l 271 439 b 385 522 275 497 304 522 z "},"ę":{"ha":772,"x_min":0,"x_max":0,"o":"m 529 -260 l 529 -107 l 454 -107 b 440 -96 446 -107 440 -104 b 449 -79 440 -89 443 -86 l 510 -1 b 736 233 651 29 736 118 l 736 250 l 478 250 l 478 247 b 394 203 478 215 457 203 b 271 297 299 203 275 221 l 733 297 b 744 403 738 321 744 364 b 399 728 744 593 629 728 b 28 350 161 728 28 586 b 331 -11 28 143 136 11 l 310 -35 b 243 -164 272 -76 243 -119 b 363 -260 243 -231 286 -260 z m 385 522 b 496 439 471 522 494 485 l 271 439 b 385 522 275 497 304 522 z "},"ẽ":{"ha":772,"x_min":0,"x_max":0,"o":"m 286 763 l 286 793 b 307 821 286 808 290 821 b 335 814 314 821 322 818 l 417 782 b 535 754 456 767 494 754 b 658 888 632 754 658 824 l 658 985 l 485 985 l 485 960 b 464 928 485 936 479 928 b 415 942 453 928 438 933 l 356 967 b 253 993 318 982 290 993 b 113 844 136 993 113 910 l 113 763 z m 390 -14 b 736 233 603 -14 736 89 l 736 250 l 478 250 l 478 247 b 394 203 478 215 457 203 b 271 297 299 203 275 221 l 733 297 b 744 403 738 321 744 364 b 399 728 744 593 629 728 b 28 350 161 728 28 586 b 390 -14 28 122 158 -14 z m 385 522 b 496 439 471 522 494 485 l 271 439 b 385 522 275 497 304 522 z "},"ğ":{"ha":832,"x_min":0,"x_max":0,"o":"m 426 764 b 657 938 565 764 657 824 l 657 964 l 476 964 l 476 951 b 428 917 476 928 471 917 b 378 951 383 917 378 928 l 378 964 l 197 964 l 197 938 b 426 764 197 824 289 764 z m 326 89 b 519 167 431 89 494 126 l 531 167 l 531 56 b 428 -19 531 -8 507 -19 b 322 51 336 -19 322 -3 l 61 51 b 419 -250 61 -147 192 -250 b 790 111 665 -250 790 -143 l 790 714 l 547 714 l 547 624 l 539 624 b 331 728 494 699 424 728 b 28 401 131 728 28 600 b 326 89 28 211 128 89 z m 288 401 b 411 508 288 471 308 508 b 531 418 497 508 531 488 l 531 386 b 407 296 531 315 496 296 b 288 401 306 296 288 332 z "},"ĝ":{"ha":832,"x_min":0,"x_max":0,"o":"m 369 778 l 418 844 l 436 844 l 485 778 l 738 778 l 738 785 l 585 958 l 269 958 l 118 785 l 118 778 z m 326 89 b 519 167 431 89 494 126 l 531 167 l 531 56 b 428 -19 531 -8 507 -19 b 322 51 336 -19 322 -3 l 61 51 b 419 -250 61 -147 192 -250 b 790 111 665 -250 790 -143 l 790 714 l 547 714 l 547 624 l 539 624 b 331 728 494 699 424 728 b 28 401 131 728 28 600 b 326 89 28 211 128 89 z m 288 401 b 411 508 288 471 308 508 b 531 418 497 508 531 488 l 531 386 b 407 296 531 315 496 296 b 288 401 306 296 288 332 z "},"ģ":{"ha":832,"x_min":0,"x_max":0,"o":"m 471 958 l 275 785 l 275 778 l 606 778 l 717 951 l 717 958 z m 326 89 b 519 167 431 89 494 126 l 531 167 l 531 56 b 428 -19 531 -8 507 -19 b 322 51 336 -19 322 -3 l 61 51 b 419 -250 61 -147 192 -250 b 790 111 665 -250 790 -143 l 790 714 l 547 714 l 547 624 l 539 624 b 331 728 494 699 424 728 b 28 401 131 728 28 600 b 326 89 28 211 128 89 z m 288 401 b 411 508 288 471 308 508 b 531 418 497 508 531 488 l 531 386 b 407 296 531 315 496 296 b 288 401 306 296 288 332 z "},"ġ":{"ha":832,"x_min":0,"x_max":0,"o":"m 558 778 l 558 971 l 297 971 l 297 778 z m 326 89 b 519 167 431 89 494 126 l 531 167 l 531 56 b 428 -19 531 -8 507 -19 b 322 51 336 -19 322 -3 l 61 51 b 419 -250 61 -147 192 -250 b 790 111 665 -250 790 -143 l 790 714 l 547 714 l 547 624 l 539 624 b 331 728 494 699 424 728 b 28 401 131 728 28 600 b 326 89 28 211 128 89 z m 288 401 b 411 508 288 471 308 508 b 531 418 497 508 531 488 l 531 386 b 407 296 531 315 496 296 b 288 401 306 296 288 332 z "},"ħ":{"ha":867,"x_min":0,"x_max":0,"o":"m 331 0 l 331 306 b 443 407 331 382 357 407 b 553 306 535 407 553 382 l 553 0 l 814 0 l 814 360 b 556 631 814 507 744 631 b 343 522 461 631 382 589 l 331 522 l 331 672 l 588 672 l 588 853 l 331 853 l 331 931 l 69 931 l 69 853 l 0 853 l 0 672 l 69 672 l 69 0 z "},"ĥ":{"ha":821,"x_min":0,"x_max":0,"o":"m 114 1014 l 163 1081 l 181 1081 l 229 1014 l 482 1014 l 482 1021 l 329 1194 l 14 1194 l -137 1021 l -137 1014 z m 301 0 l 301 403 b 414 504 301 479 328 504 b 524 403 506 504 524 479 l 524 0 l 785 0 l 785 457 b 526 728 785 604 715 728 b 314 619 432 728 353 686 l 301 619 l 301 931 l 42 931 l 42 0 z "},"í":{"ha":344,"x_min":0,"x_max":0,"o":"m 321 778 l 568 951 l 568 958 l 208 958 l 51 785 l 51 778 z m 303 0 l 303 714 l 42 714 l 42 0 z "},"ĭ":{"ha":344,"x_min":0,"x_max":0,"o":"m 171 764 b 401 938 310 764 401 824 l 401 964 l 221 964 l 221 951 b 172 917 221 928 215 917 b 122 951 128 917 122 928 l 122 964 l -58 964 l -58 938 b 171 764 -58 824 33 764 z m 303 0 l 303 714 l 42 714 l 42 0 z "},"î":{"ha":344,"x_min":0,"x_max":0,"o":"m 114 778 l 163 844 l 181 844 l 229 778 l 482 778 l 482 785 l 329 958 l 14 958 l -137 785 l -137 778 z m 303 0 l 303 714 l 42 714 l 42 0 z "},"ï":{"ha":344,"x_min":0,"x_max":0,"o":"m 460 778 l 460 971 l 213 971 l 213 778 z m 132 778 l 132 971 l -115 971 l -115 778 z m 303 0 l 303 714 l 42 714 l 42 0 z "},"ı":{"ha":344,"x_min":0,"x_max":0,"o":"m 303 0 l 303 714 l 42 714 l 42 0 z "},"ì":{"ha":344,"x_min":0,"x_max":0,"o":"m 313 778 l 313 785 l 154 958 l -206 958 l -206 951 l 42 778 z m 303 0 l 303 714 l 42 714 l 42 0 z "},"ī":{"ha":344,"x_min":0,"x_max":0,"o":"m 404 778 l 404 950 l -61 950 l -61 778 z m 303 0 l 303 714 l 42 714 l 42 0 z "},"į":{"ha":344,"x_min":0,"x_max":0,"o":"m 301 778 l 301 931 l 42 931 l 42 778 z m 321 -260 l 321 -107 l 246 -107 b 232 -96 238 -107 232 -104 b 240 -79 232 -89 235 -86 l 303 0 l 303 714 l 42 714 l 42 0 l 132 0 l 101 -35 b 35 -164 64 -76 35 -119 b 154 -260 35 -231 78 -260 z "},"ĩ":{"ha":344,"x_min":0,"x_max":0,"o":"m 72 763 l 72 793 b 93 821 72 808 76 821 b 121 814 100 821 108 818 l 203 782 b 321 754 242 767 281 754 b 444 888 418 754 444 824 l 444 985 l 271 985 l 271 960 b 250 928 271 936 265 928 b 201 942 239 928 224 933 l 142 967 b 39 993 104 982 76 993 b -101 844 -78 993 -101 910 l -101 763 z m 303 0 l 303 714 l 42 714 l 42 0 z "},"ȷ":{"ha":342,"x_min":0,"x_max":0,"o":"m -64 -222 b 51 -236 -32 -229 15 -236 b 300 7 193 -236 300 -183 l 300 714 l 39 714 l 39 4 b -17 -49 39 -40 28 -49 l -64 -49 z "},"ĵ":{"ha":342,"x_min":0,"x_max":0,"o":"m 111 778 l 160 844 l 178 844 l 226 778 l 479 778 l 479 785 l 326 958 l 11 958 l -140 785 l -140 778 z m -64 -222 b 51 -236 -32 -229 15 -236 b 300 7 193 -236 300 -183 l 300 714 l 39 714 l 39 4 b -17 -49 39 -40 28 -49 l -64 -49 z "},"ĳ":{"ha":719,"x_min":0,"x_max":0,"o":"m 301 778 l 301 931 l 42 931 l 42 778 z m 678 778 l 678 931 l 417 931 l 417 778 z m 303 0 l 303 714 l 42 714 l 42 0 z m 314 -222 b 429 -236 346 -229 393 -236 b 678 7 571 -236 678 -183 l 678 714 l 417 714 l 417 4 b 361 -49 417 -40 406 -49 l 314 -49 z "},"ķ":{"ha":797,"x_min":0,"x_max":0,"o":"m 301 0 l 301 238 l 404 238 l 526 0 l 811 0 l 613 364 l 811 714 l 526 714 l 399 471 l 301 471 l 301 931 l 42 931 l 42 0 z m 369 -278 l 565 -104 l 565 -97 l 235 -97 l 124 -271 l 124 -278 z "},"ĺ":{"ha":343,"x_min":0,"x_max":0,"o":"m 311 994 l 558 1168 l 558 1175 l 199 1175 l 42 1001 l 42 994 z m 301 0 l 301 931 l 42 931 l 42 0 z "},"ľ":{"ha":703,"x_min":0,"x_max":0,"o":"m 301 0 l 301 931 l 42 931 l 42 0 z m 471 482 b 675 683 601 482 675 547 l 675 931 l 372 931 l 372 699 l 504 699 l 504 681 b 463 636 504 643 492 636 l 385 636 l 385 482 z "},"ļ":{"ha":343,"x_min":0,"x_max":0,"o":"m 301 0 l 301 931 l 42 931 l 42 0 z m 129 -278 l 325 -104 l 325 -97 l -6 -97 l -117 -271 l -117 -278 z "},"ł":{"ha":508,"x_min":0,"x_max":0,"o":"m 385 0 l 385 500 l 524 561 l 454 707 l 385 676 l 385 931 l 125 931 l 125 561 l -14 500 l 56 354 l 125 385 l 125 0 z "},"ŀ":{"ha":604,"x_min":0,"x_max":0,"o":"m 301 0 l 301 931 l 42 931 l 42 0 z m 611 369 l 611 563 l 350 563 l 350 369 z "},"ñ":{"ha":821,"x_min":0,"x_max":0,"o":"m 314 763 l 314 793 b 335 821 314 808 318 821 b 363 814 342 821 350 818 l 444 782 b 563 754 483 767 522 754 b 686 888 660 754 686 824 l 686 985 l 513 985 l 513 960 b 492 928 513 936 507 928 b 443 942 481 928 465 933 l 383 967 b 281 993 346 982 318 993 b 140 844 164 993 140 910 l 140 763 z m 301 0 l 301 407 b 414 504 301 483 328 504 b 524 403 506 504 524 479 l 524 0 l 785 0 l 785 457 b 531 728 785 604 715 728 b 297 606 425 728 336 686 l 285 606 l 285 714 l 42 714 l 42 0 z "},"ń":{"ha":821,"x_min":0,"x_max":0,"o":"m 563 778 l 810 951 l 810 958 l 450 958 l 293 785 l 293 778 z m 301 0 l 301 407 b 414 504 301 483 328 504 b 524 403 506 504 524 479 l 524 0 l 785 0 l 785 457 b 531 728 785 604 715 728 b 297 606 425 728 336 686 l 285 606 l 285 714 l 42 714 l 42 0 z "},"ň":{"ha":821,"x_min":0,"x_max":0,"o":"m 571 778 l 724 951 l 724 958 l 471 958 l 422 892 l 404 892 l 356 958 l 104 958 l 104 951 l 256 778 z m 301 0 l 301 407 b 414 504 301 483 328 504 b 524 403 506 504 524 479 l 524 0 l 785 0 l 785 457 b 531 728 785 604 715 728 b 297 606 425 728 336 686 l 285 606 l 285 714 l 42 714 l 42 0 z "},"ņ":{"ha":821,"x_min":0,"x_max":0,"o":"m 301 0 l 301 407 b 414 504 301 483 328 504 b 524 403 506 504 524 479 l 524 0 l 785 0 l 785 457 b 531 728 785 604 715 728 b 297 606 425 728 336 686 l 285 606 l 285 714 l 42 714 l 42 0 z m 369 -278 l 565 -104 l 565 -97 l 235 -97 l 124 -271 l 124 -278 z "},"ŋ":{"ha":821,"x_min":0,"x_max":0,"o":"m 301 0 l 301 407 b 414 504 301 483 328 504 b 524 403 506 504 524 479 l 524 57 b 440 0 524 10 518 0 l 389 0 l 389 -236 l 425 -236 b 785 63 644 -236 785 -171 l 785 457 b 531 728 785 604 715 728 b 297 606 425 728 336 686 l 285 606 l 285 714 l 42 714 l 42 0 z "},"ó":{"ha":800,"x_min":0,"x_max":0,"o":"m 549 778 l 796 951 l 796 958 l 436 958 l 279 785 l 279 778 z m 400 -14 b 772 357 636 -14 772 126 b 400 728 772 589 636 728 b 28 357 164 728 28 589 b 400 -14 28 126 164 -14 z m 400 213 b 288 357 313 213 288 243 b 400 501 288 471 313 501 b 513 357 488 501 513 471 b 400 213 513 243 488 213 z "},"ŏ":{"ha":800,"x_min":0,"x_max":0,"o":"m 399 764 b 629 938 538 764 629 824 l 629 964 l 449 964 l 449 951 b 400 917 449 928 443 917 b 350 951 356 917 350 928 l 350 964 l 169 964 l 169 938 b 399 764 169 824 261 764 z m 400 -14 b 772 357 636 -14 772 126 b 400 728 772 589 636 728 b 28 357 164 728 28 589 b 400 -14 28 126 164 -14 z m 400 213 b 288 357 313 213 288 243 b 400 501 288 471 313 501 b 513 357 488 501 513 471 b 400 213 513 243 488 213 z "},"ô":{"ha":800,"x_min":0,"x_max":0,"o":"m 342 778 l 390 844 l 408 844 l 457 778 l 710 778 l 710 785 l 557 958 l 242 958 l 90 785 l 90 778 z m 400 -14 b 772 357 636 -14 772 126 b 400 728 772 589 636 728 b 28 357 164 728 28 589 b 400 -14 28 126 164 -14 z m 400 213 b 288 357 313 213 288 243 b 400 501 288 471 313 501 b 513 357 488 501 513 471 b 400 213 513 243 488 213 z "},"ö":{"ha":800,"x_min":0,"x_max":0,"o":"m 688 778 l 688 971 l 440 971 l 440 778 z m 360 778 l 360 971 l 113 971 l 113 778 z m 400 -14 b 772 357 636 -14 772 126 b 400 728 772 589 636 728 b 28 357 164 728 28 589 b 400 -14 28 126 164 -14 z m 400 213 b 288 357 313 213 288 243 b 400 501 288 471 313 501 b 513 357 488 501 513 471 b 400 213 513 243 488 213 z "},"ò":{"ha":800,"x_min":0,"x_max":0,"o":"m 540 778 l 540 785 l 382 958 l 22 958 l 22 951 l 269 778 z m 400 -14 b 772 357 636 -14 772 126 b 400 728 772 589 636 728 b 28 357 164 728 28 589 b 400 -14 28 126 164 -14 z m 400 213 b 288 357 313 213 288 243 b 400 501 288 471 313 501 b 513 357 488 501 513 471 b 400 213 513 243 488 213 z "},"ő":{"ha":800,"x_min":0,"x_max":0,"o":"m 311 778 l 446 951 l 446 958 l 169 958 l 86 785 l 86 778 z m 639 778 l 775 951 l 775 958 l 499 958 l 414 785 l 414 778 z m 400 -14 b 772 357 636 -14 772 126 b 400 728 772 589 636 728 b 28 357 164 728 28 589 b 400 -14 28 126 164 -14 z m 400 213 b 288 357 313 213 288 243 b 400 501 288 471 313 501 b 513 357 488 501 513 471 b 400 213 513 243 488 213 z "},"ō":{"ha":800,"x_min":0,"x_max":0,"o":"m 632 778 l 632 950 l 167 950 l 167 778 z m 400 -14 b 772 357 636 -14 772 126 b 400 728 772 589 636 728 b 28 357 164 728 28 589 b 400 -14 28 126 164 -14 z m 400 213 b 288 357 313 213 288 243 b 400 501 288 471 313 501 b 513 357 488 501 513 471 b 400 213 513 243 488 213 z "},"ø":{"ha":800,"x_min":0,"x_max":0,"o":"m 400 -14 b 772 357 636 -14 772 126 b 731 553 772 432 758 499 l 811 622 l 719 724 l 643 657 b 400 728 582 703 500 728 b 28 357 164 728 28 589 b 71 161 28 282 43 215 l -11 90 l 81 -10 l 158 57 b 400 -14 219 11 300 -14 z m 288 357 b 400 501 288 471 313 501 b 456 494 422 501 440 500 l 288 349 b 288 357 288 357 288 357 z m 400 213 b 346 219 378 213 360 214 l 513 364 b 513 357 513 357 513 357 b 400 213 513 243 488 213 z "},"ǿ":{"ha":800,"x_min":0,"x_max":0,"o":"m 513 778 l 760 951 l 760 958 l 400 958 l 243 785 l 243 778 z m 400 -14 b 772 357 636 -14 772 126 b 731 553 772 432 758 499 l 811 622 l 719 724 l 643 657 b 400 728 582 703 500 728 b 28 357 164 728 28 589 b 71 161 28 282 43 215 l -11 90 l 81 -10 l 158 57 b 400 -14 219 11 300 -14 z m 288 357 b 400 501 288 471 313 501 b 456 494 422 501 440 500 l 288 349 b 288 357 288 357 288 357 z m 400 213 b 346 219 378 213 360 214 l 513 364 b 513 357 513 357 513 357 b 400 213 513 243 488 213 z "},"õ":{"ha":800,"x_min":0,"x_max":0,"o":"m 300 763 l 300 793 b 321 821 300 808 304 821 b 349 814 328 821 336 818 l 431 782 b 549 754 469 767 508 754 b 672 888 646 754 672 824 l 672 985 l 499 985 l 499 960 b 478 928 499 936 493 928 b 429 942 467 928 451 933 l 369 967 b 267 993 332 982 304 993 b 126 844 150 993 126 910 l 126 763 z m 400 -14 b 772 357 636 -14 772 126 b 400 728 772 589 636 728 b 28 357 164 728 28 589 b 400 -14 28 126 164 -14 z m 400 213 b 288 357 313 213 288 243 b 400 501 288 471 313 501 b 513 357 488 501 513 471 b 400 213 513 243 488 213 z "},"þ":{"ha":832,"x_min":0,"x_max":0,"o":"m 301 -222 l 301 94 l 314 94 b 517 -14 344 29 414 -14 b 804 357 706 -14 804 132 b 517 728 804 582 706 728 b 314 619 414 728 344 685 l 301 619 l 301 931 l 42 931 l 42 -222 z m 301 331 l 301 383 b 422 501 301 481 340 501 b 544 357 532 501 544 453 b 422 213 544 261 532 213 b 301 331 340 213 301 233 z "},"ŕ":{"ha":693,"x_min":0,"x_max":0,"o":"m 513 778 l 760 951 l 760 958 l 400 958 l 243 785 l 243 778 z m 301 0 l 301 451 b 367 508 301 503 324 508 b 425 440 415 508 425 493 l 425 369 l 686 369 l 686 499 b 500 728 686 639 638 728 b 297 606 406 728 338 675 l 285 606 l 285 714 l 42 714 l 42 0 z "},"ř":{"ha":693,"x_min":0,"x_max":0,"o":"m 521 778 l 674 951 l 674 958 l 421 958 l 372 892 l 354 892 l 306 958 l 54 958 l 54 951 l 206 778 z m 301 0 l 301 451 b 367 508 301 503 324 508 b 425 440 415 508 425 493 l 425 369 l 686 369 l 686 499 b 500 728 686 639 638 728 b 297 606 406 728 338 675 l 285 606 l 285 714 l 42 714 l 42 0 z "},"ŗ":{"ha":693,"x_min":0,"x_max":0,"o":"m 301 0 l 301 451 b 367 508 301 503 324 508 b 425 440 415 508 425 493 l 425 369 l 686 369 l 686 499 b 500 728 686 639 638 728 b 297 606 406 728 338 675 l 285 606 l 285 714 l 42 714 l 42 0 z m 139 -278 l 335 -104 l 335 -97 l 4 -97 l -107 -271 l -107 -278 z "},"ś":{"ha":703,"x_min":0,"x_max":0,"o":"m 500 778 l 747 951 l 747 958 l 388 958 l 231 785 l 231 778 z m 368 -14 b 689 217 578 -14 689 82 b 475 428 689 332 635 394 l 315 461 b 263 499 269 471 263 481 b 333 532 263 519 271 532 b 418 476 400 532 418 519 l 418 464 l 663 464 l 663 490 b 340 728 663 647 524 728 b 22 499 129 728 22 631 b 244 278 22 360 103 304 l 381 253 b 447 213 440 242 447 235 b 368 179 447 186 440 179 b 268 228 281 179 268 189 l 268 246 l 25 246 l 25 242 b 368 -14 25 79 132 -14 z "},"š":{"ha":703,"x_min":0,"x_max":0,"o":"m 508 778 l 661 951 l 661 958 l 408 958 l 360 892 l 342 892 l 293 958 l 42 958 l 42 951 l 193 778 z m 368 -14 b 689 217 578 -14 689 82 b 475 428 689 332 635 394 l 315 461 b 263 499 269 471 263 481 b 333 532 263 519 271 532 b 418 476 400 532 418 519 l 418 464 l 663 464 l 663 490 b 340 728 663 647 524 728 b 22 499 129 728 22 631 b 244 278 22 360 103 304 l 381 253 b 447 213 440 242 447 235 b 368 179 447 186 440 179 b 268 228 281 179 268 189 l 268 246 l 25 246 l 25 242 b 368 -14 25 79 132 -14 z "},"ş":{"ha":703,"x_min":0,"x_max":0,"o":"m 429 -335 b 606 -187 543 -335 606 -276 b 440 -50 606 -104 546 -50 l 435 -50 l 435 -10 b 689 217 601 8 689 97 b 475 428 689 332 635 394 l 315 461 b 263 499 269 471 263 481 b 333 532 263 519 271 532 b 418 476 400 532 418 519 l 418 464 l 663 464 l 663 490 b 340 728 663 647 524 728 b 22 499 129 728 22 631 b 244 278 22 360 103 304 l 381 253 b 447 213 440 242 447 235 b 368 179 447 186 440 179 b 268 228 281 179 268 189 l 268 246 l 25 246 l 25 242 b 303 -11 25 94 113 6 l 303 -168 l 436 -168 b 457 -185 451 -168 457 -172 b 436 -201 457 -197 451 -201 l 264 -201 l 264 -335 z "},"ŝ":{"ha":703,"x_min":0,"x_max":0,"o":"m 293 778 l 342 844 l 360 844 l 408 778 l 661 778 l 661 785 l 508 958 l 193 958 l 42 785 l 42 778 z m 368 -14 b 689 217 578 -14 689 82 b 475 428 689 332 635 394 l 315 461 b 263 499 269 471 263 481 b 333 532 263 519 271 532 b 418 476 400 532 418 519 l 418 464 l 663 464 l 663 490 b 340 728 663 647 524 728 b 22 499 129 728 22 631 b 244 278 22 360 103 304 l 381 253 b 447 213 440 242 447 235 b 368 179 447 186 440 179 b 268 228 281 179 268 189 l 268 246 l 25 246 l 25 242 b 368 -14 25 79 132 -14 z "},"ș":{"ha":703,"x_min":0,"x_max":0,"o":"m 368 -14 b 689 217 578 -14 689 82 b 475 428 689 332 635 394 l 315 461 b 263 499 269 471 263 481 b 333 532 263 519 271 532 b 418 476 400 532 418 519 l 418 464 l 663 464 l 663 490 b 340 728 663 647 524 728 b 22 499 129 728 22 631 b 244 278 22 360 103 304 l 381 253 b 447 213 440 242 447 235 b 368 179 447 186 440 179 b 268 228 281 179 268 189 l 268 246 l 25 246 l 25 242 b 368 -14 25 79 132 -14 z m 338 -278 l 533 -104 l 533 -97 l 203 -97 l 92 -271 l 92 -278 z "},"ß":{"ha":835,"x_min":0,"x_max":0,"o":"m 299 0 l 299 618 b 422 713 299 700 317 713 b 525 646 503 713 525 703 b 460 582 525 600 508 582 l 368 582 l 368 368 l 482 368 b 564 301 547 368 564 356 b 482 235 564 246 547 235 l 368 235 l 368 0 l 526 0 b 829 251 724 0 829 75 b 596 488 829 399 738 478 l 596 500 b 785 700 718 513 785 589 b 440 950 785 861 658 950 b 42 610 160 950 42 824 l 42 0 z "},"ŧ":{"ha":593,"x_min":0,"x_max":0,"o":"m 0 269 l 115 269 l 115 236 b 399 -14 115 64 206 -14 b 565 3 464 -14 529 -6 l 565 221 l 451 221 b 376 269 394 221 378 231 l 565 269 l 565 469 l 376 469 l 376 514 l 565 514 l 565 714 l 376 714 l 376 861 l 169 861 l 124 714 l 0 714 l 0 514 l 115 514 l 115 469 l 0 469 z "},"ť":{"ha":572,"x_min":0,"x_max":0,"o":"m 479 731 b 683 932 610 731 683 796 l 683 1179 l 381 1179 l 381 947 l 513 947 l 513 929 b 471 885 513 892 500 885 l 393 885 l 393 731 z m 378 -14 b 544 3 443 -14 508 -6 l 544 221 l 431 221 b 356 275 371 221 356 232 l 356 500 l 544 500 l 544 714 l 356 714 l 356 861 l 149 861 l 103 714 l 0 714 l 0 500 l 94 500 l 94 236 b 378 -14 94 64 185 -14 z "},"ţ":{"ha":572,"x_min":0,"x_max":0,"o":"m 460 -335 b 636 -187 574 -335 636 -276 b 471 -50 636 -104 576 -50 l 465 -50 l 465 -10 b 544 3 497 -6 525 -1 l 544 221 l 431 221 b 356 275 371 221 356 232 l 356 500 l 544 500 l 544 714 l 356 714 l 356 861 l 149 861 l 103 714 l 0 714 l 0 500 l 94 500 l 94 236 b 333 -12 94 78 171 -1 l 333 -168 l 467 -168 b 488 -185 482 -168 488 -172 b 467 -201 488 -197 482 -201 l 294 -201 l 294 -335 z "},"ț":{"ha":572,"x_min":0,"x_max":0,"o":"m 378 -14 b 544 3 443 -14 508 -6 l 544 221 l 431 221 b 356 275 371 221 356 232 l 356 500 l 544 500 l 544 714 l 356 714 l 356 861 l 149 861 l 103 714 l 0 714 l 0 500 l 94 500 l 94 236 b 378 -14 94 64 185 -14 z m 368 -278 l 564 -104 l 564 -97 l 233 -97 l 122 -271 l 122 -278 z "},"ú":{"ha":821,"x_min":0,"x_max":0,"o":"m 556 778 l 803 951 l 803 958 l 443 958 l 286 785 l 286 778 z m 290 -14 b 524 108 396 -14 485 28 l 536 108 l 536 0 l 779 0 l 779 714 l 519 714 l 519 307 b 407 210 519 231 493 210 b 297 311 315 210 297 235 l 297 714 l 36 714 l 36 257 b 290 -14 36 110 106 -14 z "},"û":{"ha":821,"x_min":0,"x_max":0,"o":"m 349 778 l 397 844 l 415 844 l 464 778 l 717 778 l 717 785 l 564 958 l 249 958 l 97 785 l 97 778 z m 290 -14 b 524 108 396 -14 485 28 l 536 108 l 536 0 l 779 0 l 779 714 l 519 714 l 519 307 b 407 210 519 231 493 210 b 297 311 315 210 297 235 l 297 714 l 36 714 l 36 257 b 290 -14 36 110 106 -14 z "},"ü":{"ha":821,"x_min":0,"x_max":0,"o":"m 694 778 l 694 971 l 447 971 l 447 778 z m 367 778 l 367 971 l 119 971 l 119 778 z m 290 -14 b 524 108 396 -14 485 28 l 536 108 l 536 0 l 779 0 l 779 714 l 519 714 l 519 307 b 407 210 519 231 493 210 b 297 311 315 210 297 235 l 297 714 l 36 714 l 36 257 b 290 -14 36 110 106 -14 z "},"ù":{"ha":821,"x_min":0,"x_max":0,"o":"m 547 778 l 547 785 l 389 958 l 29 958 l 29 951 l 276 778 z m 290 -14 b 524 108 396 -14 485 28 l 536 108 l 536 0 l 779 0 l 779 714 l 519 714 l 519 307 b 407 210 519 231 493 210 b 297 311 315 210 297 235 l 297 714 l 36 714 l 36 257 b 290 -14 36 110 106 -14 z "},"ŭ":{"ha":821,"x_min":0,"x_max":0,"o":"m 406 764 b 636 938 544 764 636 824 l 636 964 l 456 964 l 456 951 b 407 917 456 928 450 917 b 357 951 363 917 357 928 l 357 964 l 176 964 l 176 938 b 406 764 176 824 268 764 z m 290 -14 b 524 108 396 -14 485 28 l 536 108 l 536 0 l 779 0 l 779 714 l 519 714 l 519 307 b 407 210 519 231 493 210 b 297 311 315 210 297 235 l 297 714 l 36 714 l 36 257 b 290 -14 36 110 106 -14 z "},"ű":{"ha":821,"x_min":0,"x_max":0,"o":"m 318 778 l 453 951 l 453 958 l 176 958 l 93 785 l 93 778 z m 646 778 l 782 951 l 782 958 l 506 958 l 421 785 l 421 778 z m 290 -14 b 524 108 396 -14 485 28 l 536 108 l 536 0 l 779 0 l 779 714 l 519 714 l 519 307 b 407 210 519 231 493 210 b 297 311 315 210 297 235 l 297 714 l 36 714 l 36 257 b 290 -14 36 110 106 -14 z "},"ū":{"ha":821,"x_min":0,"x_max":0,"o":"m 639 778 l 639 950 l 174 950 l 174 778 z m 290 -14 b 524 108 396 -14 485 28 l 536 108 l 536 0 l 779 0 l 779 714 l 519 714 l 519 307 b 407 210 519 231 493 210 b 297 311 315 210 297 235 l 297 714 l 36 714 l 36 257 b 290 -14 36 110 106 -14 z "},"ų":{"ha":821,"x_min":0,"x_max":0,"o":"m 290 -14 b 524 108 396 -14 485 28 l 536 108 l 536 0 l 608 0 l 578 -35 b 511 -164 540 -76 511 -119 b 631 -260 511 -231 554 -260 l 797 -260 l 797 -107 l 722 -107 b 708 -96 714 -107 708 -104 b 717 -79 708 -89 711 -86 l 779 0 l 779 714 l 519 714 l 519 307 b 407 210 519 231 493 210 b 297 311 315 210 297 235 l 297 714 l 36 714 l 36 257 b 290 -14 36 110 106 -14 z "},"ů":{"ha":821,"x_min":0,"x_max":0,"o":"m 407 756 b 556 878 494 756 556 797 b 407 1000 556 958 494 1000 b 258 878 318 1000 258 958 b 407 756 258 797 318 756 z m 407 857 b 365 878 374 857 365 863 b 407 899 365 893 374 899 b 449 878 440 899 449 893 b 407 857 449 863 440 857 z m 290 -14 b 524 108 396 -14 485 28 l 536 108 l 536 0 l 779 0 l 779 714 l 519 714 l 519 307 b 407 210 519 231 493 210 b 297 311 315 210 297 235 l 297 714 l 36 714 l 36 257 b 290 -14 36 110 106 -14 z "},"ũ":{"ha":821,"x_min":0,"x_max":0,"o":"m 307 763 l 307 793 b 328 821 307 808 311 821 b 356 814 335 821 343 818 l 438 782 b 556 754 476 767 515 754 b 679 888 653 754 679 824 l 679 985 l 506 985 l 506 960 b 485 928 506 936 500 928 b 436 942 474 928 458 933 l 376 967 b 274 993 339 982 311 993 b 133 844 157 993 133 910 l 133 763 z m 290 -14 b 524 108 396 -14 485 28 l 536 108 l 536 0 l 779 0 l 779 714 l 519 714 l 519 307 b 407 210 519 231 493 210 b 297 311 315 210 297 235 l 297 714 l 36 714 l 36 257 b 290 -14 36 110 106 -14 z "},"ẃ":{"ha":1186,"x_min":0,"x_max":0,"o":"m 742 778 l 989 951 l 989 958 l 629 958 l 472 785 l 472 778 z m 499 0 l 567 301 l 585 475 l 603 475 l 621 301 l 688 0 l 1042 0 l 1186 714 l 910 714 l 881 413 l 868 203 l 850 203 l 828 413 l 765 714 l 432 714 l 371 413 l 349 204 l 329 204 l 317 413 l 288 714 l 0 714 l 144 0 z "},"ŵ":{"ha":1186,"x_min":0,"x_max":0,"o":"m 535 778 l 583 844 l 601 844 l 650 778 l 903 778 l 903 785 l 750 958 l 435 958 l 283 785 l 283 778 z m 499 0 l 567 301 l 585 475 l 603 475 l 621 301 l 688 0 l 1042 0 l 1186 714 l 910 714 l 881 413 l 868 203 l 850 203 l 828 413 l 765 714 l 432 714 l 371 413 l 349 204 l 329 204 l 317 413 l 288 714 l 0 714 l 144 0 z "},"ẅ":{"ha":1186,"x_min":0,"x_max":0,"o":"m 881 778 l 881 971 l 633 971 l 633 778 z m 553 778 l 553 971 l 306 971 l 306 778 z m 499 0 l 567 301 l 585 475 l 603 475 l 621 301 l 688 0 l 1042 0 l 1186 714 l 910 714 l 881 413 l 868 203 l 850 203 l 828 413 l 765 714 l 432 714 l 371 413 l 349 204 l 329 204 l 317 413 l 288 714 l 0 714 l 144 0 z "},"ẁ":{"ha":1186,"x_min":0,"x_max":0,"o":"m 733 778 l 733 785 l 575 958 l 215 958 l 215 951 l 463 778 z m 499 0 l 567 301 l 585 475 l 603 475 l 621 301 l 688 0 l 1042 0 l 1186 714 l 910 714 l 881 413 l 868 203 l 850 203 l 828 413 l 765 714 l 432 714 l 371 413 l 349 204 l 329 204 l 317 413 l 288 714 l 0 714 l 144 0 z "},"ý":{"ha":796,"x_min":0,"x_max":0,"o":"m 547 778 l 794 951 l 794 958 l 435 958 l 278 785 l 278 778 z m 213 -236 b 529 -18 351 -236 467 -182 l 810 714 l 522 714 l 443 421 l 414 283 l 396 283 l 364 421 l 269 714 l -21 714 l 264 32 b 193 0 251 6 236 0 l 47 0 l 47 -217 b 213 -236 81 -225 151 -236 z "},"ŷ":{"ha":796,"x_min":0,"x_max":0,"o":"m 340 778 l 389 844 l 407 844 l 456 778 l 708 778 l 708 785 l 556 958 l 240 958 l 89 785 l 89 778 z m 213 -236 b 529 -18 351 -236 467 -182 l 810 714 l 522 714 l 443 421 l 414 283 l 396 283 l 364 421 l 269 714 l -21 714 l 264 32 b 193 0 251 6 236 0 l 47 0 l 47 -217 b 213 -236 81 -225 151 -236 z "},"ÿ":{"ha":796,"x_min":0,"x_max":0,"o":"m 686 778 l 686 971 l 439 971 l 439 778 z m 358 778 l 358 971 l 111 971 l 111 778 z m 213 -236 b 529 -18 351 -236 467 -182 l 810 714 l 522 714 l 443 421 l 414 283 l 396 283 l 364 421 l 269 714 l -21 714 l 264 32 b 193 0 251 6 236 0 l 47 0 l 47 -217 b 213 -236 81 -225 151 -236 z "},"ỳ":{"ha":796,"x_min":0,"x_max":0,"o":"m 539 778 l 539 785 l 381 958 l 21 958 l 21 951 l 268 778 z m 213 -236 b 529 -18 351 -236 467 -182 l 810 714 l 522 714 l 443 421 l 414 283 l 396 283 l 364 421 l 269 714 l -21 714 l 264 32 b 193 0 251 6 236 0 l 47 0 l 47 -217 b 213 -236 81 -225 151 -236 z "},"ỹ":{"ha":796,"x_min":0,"x_max":0,"o":"m 299 763 l 299 793 b 319 821 299 808 303 821 b 347 814 326 821 335 818 l 429 782 b 547 754 468 767 507 754 b 671 888 644 754 671 824 l 671 985 l 497 985 l 497 960 b 476 928 497 936 492 928 b 428 942 465 928 450 933 l 368 967 b 265 993 331 982 303 993 b 125 844 149 993 125 910 l 125 763 z m 213 -236 b 529 -18 351 -236 467 -182 l 810 714 l 522 714 l 443 421 l 414 283 l 396 283 l 364 421 l 269 714 l -21 714 l 264 32 b 193 0 251 6 236 0 l 47 0 l 47 -217 b 213 -236 81 -225 151 -236 z "},"ž":{"ha":746,"x_min":0,"x_max":0,"o":"m 529 778 l 682 951 l 682 958 l 429 958 l 381 892 l 363 892 l 314 958 l 63 958 l 63 951 l 214 778 z m 718 0 l 718 228 l 461 228 l 367 217 l 363 233 l 461 293 l 697 496 l 697 714 l 49 714 l 49 486 l 271 486 l 374 500 l 378 483 l 271 428 l 28 199 l 28 0 z "},"ź":{"ha":746,"x_min":0,"x_max":0,"o":"m 521 778 l 768 951 l 768 958 l 408 958 l 251 785 l 251 778 z m 718 0 l 718 228 l 461 228 l 367 217 l 363 233 l 461 293 l 697 496 l 697 714 l 49 714 l 49 486 l 271 486 l 374 500 l 378 483 l 271 428 l 28 199 l 28 0 z "},"ż":{"ha":746,"x_min":0,"x_max":0,"o":"m 503 778 l 503 971 l 242 971 l 242 778 z m 718 0 l 718 228 l 461 228 l 367 217 l 363 233 l 461 293 l 697 496 l 697 714 l 49 714 l 49 486 l 271 486 l 374 500 l 378 483 l 271 428 l 28 199 l 28 0 z "},"´":{"ha":833,"x_min":0,"x_max":0,"o":"m 467 778 l 714 951 l 714 958 l 354 958 l 197 785 l 197 778 z "},"˘":{"ha":833,"x_min":0,"x_max":0,"o":"m 289 764 b 519 938 428 764 519 824 l 519 964 l 339 964 l 339 951 b 290 917 339 928 333 917 b 240 951 246 917 240 928 l 240 964 l 60 964 l 60 938 b 289 764 60 824 151 764 z "},"ˇ":{"ha":833,"x_min":0,"x_max":0,"o":"m 475 778 l 628 951 l 628 958 l 375 958 l 326 892 l 308 892 l 260 958 l 8 958 l 8 951 l 160 778 z "},"¸":{"ha":833,"x_min":0,"x_max":0,"o":"m 299 -335 b 475 -187 413 -335 475 -276 b 310 -50 475 -104 415 -50 l 304 -50 l 304 4 l 172 4 l 172 -168 l 306 -168 b 326 -185 321 -168 326 -172 b 306 -201 326 -197 321 -201 l 133 -201 l 133 -335 z "},"ˆ":{"ha":833,"x_min":0,"x_max":0,"o":"m 260 778 l 308 844 l 326 844 l 375 778 l 628 778 l 628 785 l 475 958 l 160 958 l 8 785 l 8 778 z "},"¨":{"ha":833,"x_min":0,"x_max":0,"o":"m 622 778 l 622 971 l 375 971 l 375 778 z m 294 778 l 294 971 l 47 971 l 47 778 z "},"˙":{"ha":833,"x_min":0,"x_max":0,"o":"m 321 778 l 321 971 l 60 971 l 60 778 z "},"`":{"ha":833,"x_min":0,"x_max":0,"o":"m 435 778 l 435 785 l 276 958 l -83 958 l -83 951 l 164 778 z "},"˝":{"ha":833,"x_min":0,"x_max":0,"o":"m 303 778 l 438 951 l 438 958 l 161 958 l 78 785 l 78 778 z m 631 778 l 767 951 l 767 958 l 490 958 l 406 785 l 406 778 z "},"¯":{"ha":833,"x_min":0,"x_max":0,"o":"m 525 778 l 525 950 l 60 950 l 60 778 z "},"˛":{"ha":833,"x_min":0,"x_max":0,"o":"m 347 -260 l 347 -107 l 272 -107 b 258 -96 264 -107 258 -104 b 267 -79 258 -89 261 -86 l 329 0 l 158 0 l 128 -35 b 61 -164 90 -76 61 -119 b 181 -260 61 -231 104 -260 z "},"˚":{"ha":833,"x_min":0,"x_max":0,"o":"m 208 756 b 357 878 296 756 357 797 b 208 1000 357 958 296 1000 b 60 878 119 1000 60 958 b 208 756 60 797 119 756 z m 208 857 b 167 878 175 857 167 863 b 208 899 167 893 175 899 b 250 878 242 899 250 893 b 208 857 250 863 242 857 z "},"˜":{"ha":833,"x_min":0,"x_max":0,"o":"m 233 763 l 233 793 b 254 821 233 808 238 821 b 282 814 261 821 269 818 l 364 782 b 482 754 403 767 442 754 b 606 888 579 754 606 824 l 606 985 l 432 985 l 432 960 b 411 928 432 936 426 928 b 363 942 400 928 385 933 l 303 967 b 200 993 265 982 238 993 b 60 844 83 993 60 910 l 60 763 z "},"·":{"ha":394,"x_min":0,"x_max":0,"o":"m 353 347 l 353 635 l 42 635 l 42 347 z "},".":{"ha":394,"x_min":0,"x_max":0,"o":"m 353 0 l 353 288 l 42 288 l 42 0 z "},",":{"ha":394,"x_min":0,"x_max":0,"o":"m 122 -244 b 353 -18 268 -244 353 -171 l 353 288 l 42 288 l 42 0 l 163 0 l 163 -22 b 114 -72 163 -62 147 -72 l 42 -72 l 42 -244 z "},":":{"ha":394,"x_min":0,"x_max":0,"o":"m 353 426 l 353 714 l 42 714 l 42 426 z m 353 0 l 353 288 l 42 288 l 42 0 z "},";":{"ha":394,"x_min":0,"x_max":0,"o":"m 353 426 l 353 714 l 42 714 l 42 426 z m 122 -244 b 353 -18 268 -244 353 -171 l 353 288 l 42 288 l 42 0 l 163 0 l 163 -22 b 114 -72 163 -62 147 -72 l 42 -72 l 42 -244 z "},"…":{"ha":1183,"x_min":0,"x_max":0,"o":"m 353 0 l 353 288 l 42 288 l 42 0 z m 747 0 l 747 288 l 436 288 l 436 0 z m 1142 0 l 1142 288 l 831 288 l 831 0 z "},"?":{"ha":840,"x_min":0,"x_max":0,"o":"m 492 325 l 492 364 b 531 421 492 393 499 407 l 632 465 b 792 686 717 503 792 560 b 442 944 792 831 694 944 b 42 629 160 944 42 803 l 42 614 l 299 614 l 299 636 b 425 710 299 689 321 710 b 532 669 514 710 532 699 b 467 613 532 644 514 638 l 353 551 b 232 372 274 510 232 465 l 232 325 z m 514 0 l 514 246 l 214 246 l 214 0 z "},"!":{"ha":489,"x_min":0,"x_max":0,"o":"m 378 306 b 414 833 378 399 414 726 l 414 931 l 75 931 l 75 833 b 111 306 75 726 111 400 z m 393 0 l 393 246 l 94 246 l 94 0 z "},"¿":{"ha":840,"x_min":0,"x_max":0,"o":"m 326 694 l 326 449 l 626 449 l 626 694 z m 349 369 l 349 331 b 310 274 349 301 342 288 l 208 229 b 49 8 124 192 49 135 b 399 -250 49 -136 146 -250 b 799 65 681 -250 799 -108 l 799 81 l 542 81 l 542 58 b 415 -15 542 6 519 -15 b 308 25 326 -15 308 -4 b 374 82 308 50 326 57 l 488 143 b 608 322 567 185 608 229 l 608 369 z "},"¡":{"ha":489,"x_min":0,"x_max":0,"o":"m 96 694 l 96 449 l 394 449 l 394 694 z m 111 389 b 75 -139 111 296 75 -32 l 75 -236 l 414 -236 l 414 -139 b 378 389 414 -32 378 294 z "},"(":{"ha":485,"x_min":0,"x_max":0,"o":"m 471 14 b 317 465 339 199 317 267 b 471 917 317 664 339 732 l 339 1031 b 28 465 179 904 28 736 b 339 -100 28 194 179 26 z "},")":{"ha":485,"x_min":0,"x_max":0,"o":"m 56 917 b 210 465 188 732 210 664 b 56 14 210 267 188 199 l 188 -100 b 499 465 347 26 499 194 b 188 1031 499 736 347 904 z "},"{":{"ha":513,"x_min":0,"x_max":0,"o":"m 485 -83 l 485 171 l 474 171 b 379 256 392 171 379 190 l 379 297 b 217 457 379 400 307 457 l 217 474 b 379 633 307 474 379 531 l 379 675 b 474 760 379 740 392 760 l 485 760 l 485 1014 l 457 1014 b 139 758 224 1014 139 904 l 139 642 b 67 574 139 588 118 574 l 14 574 l 14 357 l 67 357 b 139 289 118 357 139 343 l 139 172 b 457 -83 139 26 224 -83 z "},"}":{"ha":513,"x_min":0,"x_max":0,"o":"m 28 1014 l 28 760 l 39 760 b 133 675 121 760 133 740 l 133 633 b 296 474 133 531 206 474 l 296 457 b 133 297 206 457 133 400 l 133 256 b 39 171 133 190 121 171 l 28 171 l 28 -83 l 56 -83 b 374 172 289 -83 374 26 l 374 289 b 446 357 374 343 394 357 l 499 357 l 499 574 l 446 574 b 374 642 394 574 374 588 l 374 758 b 56 1014 374 904 289 1014 z "},"[":{"ha":454,"x_min":0,"x_max":0,"o":"m 440 -83 l 440 131 l 283 131 l 283 800 l 440 800 l 440 1014 l 42 1014 l 42 -83 z "},"]":{"ha":454,"x_min":0,"x_max":0,"o":"m 14 131 l 14 -83 l 413 -83 l 413 1014 l 14 1014 l 14 800 l 171 800 l 171 131 z "},"/":{"ha":710,"x_min":0,"x_max":0,"o":"m 238 -28 l 738 958 l 472 958 l -28 -28 z "},"\\":{"ha":724,"x_min":0,"x_max":0,"o":"m 751 -28 l 251 958 l -28 958 l 472 -28 z "},"_":{"ha":528,"x_min":0,"x_max":0,"o":"m 514 -185 l 514 0 l 14 0 l 14 -185 z "},"-":{"ha":640,"x_min":0,"x_max":0,"o":"m 613 301 l 613 524 l 28 524 l 28 301 z "},"–":{"ha":842,"x_min":0,"x_max":0,"o":"m 814 301 l 814 524 l 28 524 l 28 301 z "},"—":{"ha":1511,"x_min":0,"x_max":0,"o":"m 1483 301 l 1483 524 l 28 524 l 28 301 z "},"¦":{"ha":379,"x_min":0,"x_max":0,"o":"m 310 521 l 310 1069 l 69 1069 l 69 521 z m 310 -139 l 310 410 l 69 410 l 69 -139 z "},"|":{"ha":276,"x_min":0,"x_max":0,"o":"m 258 -139 l 258 1069 l 18 1069 l 18 -139 z "},"«":{"ha":694,"x_min":0,"x_max":0,"o":"m 375 569 l 375 278 l 653 97 l 653 364 l 549 414 l 549 433 l 653 483 l 653 750 z m 42 569 l 42 278 l 319 97 l 319 364 l 215 414 l 215 433 l 319 483 l 319 750 z "},"»":{"ha":694,"x_min":0,"x_max":0,"o":"m 319 278 l 319 569 l 42 750 l 42 483 l 146 433 l 146 414 l 42 364 l 42 97 z m 653 278 l 653 569 l 375 750 l 375 483 l 479 433 l 479 414 l 375 364 l 375 97 z "},"‹":{"ha":361,"x_min":0,"x_max":0,"o":"m 42 569 l 42 278 l 319 97 l 319 364 l 215 414 l 215 433 l 319 483 l 319 750 z "},"›":{"ha":361,"x_min":0,"x_max":0,"o":"m 319 278 l 319 569 l 42 750 l 42 483 l 146 433 l 146 414 l 42 364 l 42 97 z "},"‚":{"ha":394,"x_min":0,"x_max":0,"o":"m 122 -244 b 353 -18 268 -244 353 -171 l 353 288 l 42 288 l 42 0 l 163 0 l 163 -22 b 114 -72 163 -62 147 -72 l 42 -72 l 42 -244 z "},"„":{"ha":775,"x_min":0,"x_max":0,"o":"m 122 -244 b 353 -18 268 -244 353 -171 l 353 288 l 42 288 l 42 0 l 163 0 l 163 -22 b 114 -72 163 -62 147 -72 l 42 -72 l 42 -244 z m 503 -244 b 733 -18 649 -244 733 -171 l 733 288 l 422 288 l 422 0 l 543 0 l 543 -22 b 494 -72 543 -62 528 -72 l 422 -72 l 422 -244 z "},"‘":{"ha":394,"x_min":0,"x_max":0,"o":"m 272 931 b 42 704 126 931 42 857 l 42 399 l 353 399 l 353 686 l 232 686 l 232 708 b 281 758 232 749 247 758 l 353 758 l 353 931 z "},"“":{"ha":775,"x_min":0,"x_max":0,"o":"m 272 931 b 42 704 126 931 42 857 l 42 399 l 353 399 l 353 686 l 232 686 l 232 708 b 281 758 232 749 247 758 l 353 758 l 353 931 z m 653 931 b 422 704 507 931 422 857 l 422 399 l 733 399 l 733 686 l 613 686 l 613 708 b 661 758 613 749 628 758 l 733 758 l 733 931 z "},"’":{"ha":394,"x_min":0,"x_max":0,"o":"m 122 399 b 353 625 268 399 353 472 l 353 931 l 42 931 l 42 643 l 163 643 l 163 621 b 114 571 163 581 147 571 l 42 571 l 42 399 z "},"”":{"ha":775,"x_min":0,"x_max":0,"o":"m 503 399 b 733 625 649 399 733 472 l 733 931 l 422 931 l 422 643 l 543 643 l 543 621 b 494 571 543 581 528 571 l 422 571 l 422 399 z m 122 399 b 353 625 268 399 353 472 l 353 931 l 42 931 l 42 643 l 163 643 l 163 621 b 114 571 163 581 147 571 l 42 571 l 42 399 z "},"'":{"ha":394,"x_min":0,"x_max":0,"o":"m 279 486 l 332 706 l 332 931 l 61 931 l 61 706 l 115 486 z "},"\"":{"ha":754,"x_min":0,"x_max":0,"o":"m 639 486 l 693 706 l 693 931 l 422 931 l 422 706 l 475 486 z m 279 486 l 332 706 l 332 931 l 61 931 l 61 706 l 115 486 z "},"•":{"ha":621,"x_min":0,"x_max":0,"o":"m 310 236 b 539 465 436 236 539 322 b 310 694 539 608 436 694 b 82 465 185 694 82 608 b 310 236 82 322 185 236 z "},"&":{"ha":989,"x_min":0,"x_max":0,"o":"m 421 713 l 558 713 l 558 950 l 433 950 b 99 693 236 950 99 883 b 258 486 99 583 151 497 l 258 479 b 56 257 151 469 56 400 b 444 -14 56 64 185 -14 b 840 313 747 -14 840 103 l 840 368 l 975 368 l 975 582 l 840 582 l 840 672 l 583 672 l 583 582 l 421 582 b 360 644 382 582 360 596 b 421 713 360 699 382 713 z m 458 224 b 321 292 350 224 321 225 b 406 368 321 360 350 368 l 583 368 l 583 315 b 458 224 583 235 571 224 z "},"¶":{"ha":1022,"x_min":0,"x_max":0,"o":"m 647 0 l 647 931 l 378 931 b 22 650 167 931 22 842 b 378 375 22 464 167 375 l 386 375 l 386 0 z m 964 0 l 964 931 l 703 931 l 703 0 z "},"†":{"ha":629,"x_min":0,"x_max":0,"o":"m 444 0 l 444 500 l 628 500 l 628 714 l 444 714 l 444 931 l 183 931 l 183 714 l 1 714 l 1 500 l 183 500 l 183 0 z "},"‡":{"ha":629,"x_min":0,"x_max":0,"o":"m 444 0 l 444 217 l 628 217 l 628 432 l 444 432 l 444 500 l 628 500 l 628 714 l 444 714 l 444 931 l 183 931 l 183 714 l 1 714 l 1 500 l 183 500 l 183 432 l 1 432 l 1 217 l 183 217 l 183 0 z "},"§":{"ha":722,"x_min":0,"x_max":0,"o":"m 371 -14 b 681 208 592 -14 681 76 b 625 340 681 271 658 313 l 625 349 b 692 474 671 381 692 425 b 547 619 692 544 647 588 l 329 689 b 274 725 285 703 274 708 b 347 751 274 743 286 751 b 417 707 408 751 417 739 l 417 692 l 668 692 l 668 707 b 363 944 668 864 551 944 b 36 725 157 944 36 853 b 96 581 36 649 65 606 l 96 572 b 29 451 60 547 29 510 b 176 303 29 372 76 333 l 417 231 b 447 203 442 224 447 215 b 367 179 447 186 439 179 b 290 232 303 179 290 188 l 290 246 l 39 246 l 39 224 b 371 -14 39 67 147 -14 z m 250 488 b 233 506 239 492 233 496 b 258 519 233 518 242 525 l 469 450 b 489 431 483 446 489 439 b 468 417 489 418 482 413 z "},"*":{"ha":679,"x_min":0,"x_max":0,"o":"m 313 547 l 329 547 l 394 435 l 544 543 l 458 643 l 464 657 l 592 688 l 538 861 l 413 810 l 401 819 l 413 950 l 229 950 l 240 819 l 229 810 l 106 863 l 50 689 l 175 657 l 179 643 l 94 543 l 243 436 z "},"™":{"ha":771,"x_min":0,"x_max":0,"o":"m 465 651 l 465 722 l 457 800 l 461 800 l 496 668 l 619 668 l 653 800 l 658 800 l 651 724 l 651 651 l 757 651 l 757 931 l 610 931 l 561 771 l 557 771 l 507 931 l 360 931 l 360 651 z m 226 651 l 226 822 l 322 822 l 322 931 l 14 931 l 14 822 l 110 822 l 110 651 z "},"®":{"ha":565,"x_min":0,"x_max":0,"o":"m 282 451 b 549 704 433 451 549 546 b 282 957 549 863 433 957 b 15 704 132 957 15 863 b 282 451 15 546 132 451 z m 282 549 b 121 704 156 549 121 593 b 282 860 121 814 156 860 b 446 704 410 860 446 814 b 282 549 446 593 410 549 z m 257 606 l 257 664 l 258 664 b 279 653 269 664 274 661 l 308 606 l 397 606 l 369 650 b 332 682 358 668 349 676 l 332 685 b 390 743 364 685 390 706 b 308 808 390 786 363 808 l 178 808 l 178 606 z m 257 742 l 303 742 b 313 731 310 742 313 739 b 303 721 313 724 310 721 l 257 721 z "},"©":{"ha":971,"x_min":0,"x_max":0,"o":"m 485 -12 b 967 465 754 -12 967 168 b 485 943 967 761 754 943 b 4 465 217 943 4 761 b 485 -12 4 168 217 -12 z m 485 168 b 204 465 307 168 204 217 b 485 763 204 714 307 763 b 765 465 664 763 765 714 b 485 168 765 217 664 168 z m 492 214 b 726 436 631 214 726 299 l 726 447 l 540 447 l 540 439 b 492 382 540 399 531 382 b 433 465 444 382 433 393 b 492 549 433 538 444 549 b 540 492 531 549 540 533 l 540 483 l 726 483 l 726 494 b 492 717 726 632 631 717 b 249 465 342 717 249 624 b 492 214 249 308 342 214 z "},"@":{"ha":1325,"x_min":0,"x_max":0,"o":"m 575 58 b 728 157 646 58 697 89 l 740 157 b 957 57 772 96 844 57 b 1269 415 1165 57 1269 189 b 700 931 1269 704 1063 931 b 69 335 315 931 69 686 b 608 -207 69 -15 257 -207 b 868 -164 707 -207 793 -193 l 814 35 b 649 1 776 19 710 1 b 314 335 408 1 314 69 b 676 701 314 615 414 701 b 1053 372 911 701 1053 638 b 993 249 1053 288 1029 249 b 958 286 968 249 958 261 l 958 611 l 733 611 l 733 526 l 725 526 b 582 622 697 589 656 622 b 369 340 442 622 369 501 b 575 58 369 183 425 58 z m 610 340 b 668 433 610 418 626 433 b 718 369 707 433 718 417 l 718 308 b 671 247 718 264 710 247 b 610 340 626 247 610 261 z "},"ª":{"ha":335,"x_min":0,"x_max":0,"o":"m 133 728 b 213 763 176 728 200 739 l 215 763 l 215 732 l 299 732 l 299 854 b 188 944 299 908 264 944 b 65 851 114 944 65 907 l 65 847 l 153 847 l 153 850 b 182 876 153 874 165 876 b 211 851 200 876 211 875 l 138 844 b 57 783 83 839 57 814 b 133 728 57 742 89 728 z m 142 790 b 158 800 142 797 147 799 l 208 804 b 165 782 206 789 190 782 b 142 790 154 782 142 783 z "},"º":{"ha":322,"x_min":0,"x_max":0,"o":"m 161 728 b 282 836 236 728 282 768 b 161 944 282 904 236 944 b 40 836 86 944 40 904 b 161 728 40 768 86 728 z m 161 806 b 128 836 136 806 128 813 b 161 867 128 860 136 867 b 194 836 186 867 194 860 b 161 806 194 813 186 806 z "},"#":{"ha":1192,"x_min":0,"x_max":0,"o":"m 378 0 l 433 160 l 590 160 l 543 0 l 801 0 l 853 160 l 1113 160 l 1113 389 l 926 389 l 957 493 l 1151 493 l 1151 721 l 1031 721 l 1097 931 l 839 931 l 768 721 l 611 721 l 678 931 l 419 931 l 349 721 l 93 721 l 93 492 l 275 492 l 244 389 l 54 389 l 54 160 l 171 160 l 119 0 z m 521 503 l 721 503 l 681 378 l 481 378 z "},"¢":{"ha":776,"x_min":0,"x_max":0,"o":"m 521 -139 l 521 0 b 749 288 660 36 749 138 l 749 318 l 488 318 l 488 296 b 392 217 488 238 457 217 b 286 357 314 217 286 242 b 392 497 286 472 314 497 b 488 418 457 497 488 476 l 488 396 l 749 396 l 749 426 b 521 714 749 576 660 678 l 521 853 l 279 853 l 279 714 b 28 350 117 672 28 542 b 279 0 28 164 117 40 l 279 -139 z "},"¤":{"ha":879,"x_min":0,"x_max":0,"o":"m 440 69 b 656 121 526 69 599 88 l 774 19 l 865 121 l 757 214 b 813 413 793 268 813 336 b 757 611 813 489 793 557 l 865 704 l 774 806 l 656 704 b 440 756 599 738 526 756 b 224 704 354 756 282 738 l 106 806 l 14 704 l 124 610 b 68 413 88 556 68 489 b 124 215 68 336 88 269 l 14 121 l 106 19 l 224 121 b 440 69 282 88 354 69 z m 440 296 b 328 413 353 296 328 326 b 440 529 328 499 353 529 b 553 413 528 529 553 499 b 440 296 553 326 528 296 z "},"$":{"ha":864,"x_min":0,"x_max":0,"o":"m 554 -139 l 554 -6 b 836 289 754 26 836 150 b 563 571 836 433 760 536 l 360 607 b 288 658 306 617 288 629 b 411 710 288 693 313 710 b 554 633 528 710 554 688 l 554 617 l 811 617 l 811 640 b 554 932 811 783 728 896 l 554 1069 l 311 1069 l 311 935 b 28 649 118 903 28 789 b 294 375 28 504 106 404 l 497 343 b 575 276 561 333 575 319 b 456 221 575 236 554 221 b 303 313 331 221 303 236 l 303 324 l 46 324 l 46 306 b 311 -1 46 147 135 35 l 311 -139 z "},"€":{"ha":1025,"x_min":0,"x_max":0,"o":"m 560 -14 b 997 356 854 -14 997 139 l 997 360 l 718 360 l 718 338 b 554 222 718 251 683 222 b 390 288 468 222 418 235 l 617 288 l 617 450 l 364 450 b 364 465 364 454 364 460 b 364 481 364 471 364 476 l 617 481 l 617 643 l 390 643 b 554 708 418 696 468 708 b 718 593 683 708 718 679 l 718 571 l 997 571 l 997 575 b 560 944 997 792 854 944 b 121 643 326 944 176 831 l 14 643 l 14 481 l 97 481 b 97 465 97 476 97 471 b 97 450 97 460 97 454 l 14 450 l 14 288 l 121 288 b 560 -14 176 100 326 -14 z "},"ƒ":{"ha":583,"x_min":0,"x_max":0,"o":"m -43 -236 b 381 108 219 -236 333 -153 l 422 349 l 601 349 l 643 582 l 463 582 l 465 594 b 615 696 482 688 500 696 l 664 696 l 704 931 l 664 931 b 203 586 383 931 246 828 l 201 582 l 60 582 l 18 349 l 161 349 l 118 100 b -31 -1 101 7 85 -1 l -81 -1 l -121 -236 z "},"₹":{"ha":806,"x_min":0,"x_max":0,"o":"m 790 0 l 629 185 b 394 353 550 276 485 326 l 394 361 b 626 536 532 363 606 436 l 792 536 l 792 710 l 633 710 l 633 746 l 792 746 l 792 931 l 28 931 l 28 746 l 372 746 l 372 710 l 28 710 l 28 536 l 369 536 b 313 500 364 510 349 500 l 28 500 l 28 271 l 90 271 b 264 197 185 271 215 246 l 464 0 z "},"£":{"ha":871,"x_min":0,"x_max":0,"o":"m 594 303 l 594 517 l 372 517 b 347 631 357 558 347 597 b 458 707 347 690 374 707 b 565 622 543 707 565 692 l 565 597 l 822 597 l 822 633 b 467 944 822 813 721 944 b 83 651 214 944 83 821 b 108 517 83 600 93 558 l 36 517 l 36 303 l 192 303 b 192 294 192 300 192 297 b 107 235 192 260 168 235 l 35 235 l 35 0 l 836 0 l 836 235 l 357 235 l 357 242 b 421 303 386 258 410 276 z "},"¥":{"ha":1018,"x_min":0,"x_max":0,"o":"m 639 0 l 639 142 l 976 142 l 976 356 l 654 356 l 700 429 l 976 429 l 976 643 l 829 643 l 1004 931 l 704 931 l 564 672 l 521 533 l 503 533 l 460 672 l 321 931 l 14 931 l 189 643 l 42 643 l 42 429 l 318 429 l 364 356 l 42 356 l 42 142 l 379 142 l 379 0 z "},"°":{"ha":322,"x_min":0,"x_max":0,"o":"m 161 728 b 282 836 236 728 282 768 b 161 944 282 904 236 944 b 40 836 86 944 40 904 b 161 728 40 768 86 728 z m 161 806 b 128 836 136 806 128 813 b 161 867 128 860 136 867 b 194 836 186 867 194 860 b 161 806 194 813 186 806 z "},"%":{"ha":1129,"x_min":0,"x_max":0,"o":"m 272 483 b 531 714 426 483 531 561 b 272 944 531 867 426 944 b 14 714 118 944 14 867 b 272 483 14 561 118 483 z m 347 0 l 978 931 l 783 931 l 151 0 z m 272 657 b 207 714 224 657 207 671 b 272 769 207 756 224 769 b 338 714 321 769 338 756 b 272 657 338 671 321 657 z m 857 -14 b 1115 217 1011 -14 1115 64 b 857 447 1115 369 1011 447 b 599 217 703 447 599 369 b 857 -14 599 64 703 -14 z m 857 160 b 792 217 808 160 792 174 b 857 272 792 258 808 272 b 922 217 906 272 922 258 b 857 160 922 174 906 160 z "},"‰":{"ha":1674,"x_min":0,"x_max":0,"o":"m 272 483 b 531 714 426 483 531 561 b 272 944 531 867 426 944 b 14 714 118 944 14 867 b 272 483 14 561 118 483 z m 347 0 l 978 931 l 783 931 l 151 0 z m 272 657 b 207 714 224 657 207 671 b 272 769 207 756 224 769 b 338 714 321 769 338 756 b 272 657 338 671 321 657 z m 1401 -14 b 1660 217 1556 -14 1660 64 b 1401 447 1660 369 1556 447 b 1143 217 1247 447 1143 369 b 1401 -14 1143 64 1247 -14 z m 857 -14 b 1115 217 1011 -14 1115 64 b 857 447 1115 369 1011 447 b 599 217 703 447 599 369 b 857 -14 599 64 703 -14 z m 1401 160 b 1336 217 1353 160 1336 174 b 1401 272 1336 258 1353 272 b 1467 217 1450 272 1467 258 b 1401 160 1467 174 1450 160 z m 857 160 b 792 217 808 160 792 174 b 857 272 792 258 808 272 b 922 217 906 272 922 258 b 857 160 922 174 906 160 z "},"⁄":{"ha":394,"x_min":0,"x_max":0,"o":"m -19 0 l 611 931 l 417 931 l -215 0 z "},"¹":{"ha":313,"x_min":0,"x_max":0,"o":"m 326 465 l 326 931 l 154 931 b 24 874 124 883 81 874 l 25 874 l 25 733 l 146 733 l 146 465 z "},"²":{"ha":482,"x_min":0,"x_max":0,"o":"m 447 472 l 447 613 l 329 613 l 168 596 b 235 622 196 607 210 613 l 317 646 b 460 792 400 668 460 708 b 243 944 460 883 393 944 b 11 772 83 944 11 871 l 11 756 l 188 756 l 188 772 b 238 801 188 796 200 801 b 288 781 278 801 288 794 b 251 751 288 764 275 760 l 154 714 b 6 542 61 678 6 628 l 6 472 z "},"³":{"ha":496,"x_min":0,"x_max":0,"o":"m 249 465 b 471 600 381 465 471 507 b 339 717 471 671 421 708 l 339 724 b 451 822 417 729 451 771 b 254 944 451 908 376 944 b 24 785 100 944 24 888 l 24 782 l 200 782 l 200 786 b 235 808 200 804 204 808 b 269 789 263 808 269 806 b 250 772 269 775 264 772 l 176 772 l 176 653 l 257 653 b 288 631 278 653 288 650 b 243 606 288 611 278 606 b 200 635 206 606 200 610 l 200 642 l 24 642 l 24 626 b 249 465 24 522 93 465 z "},"½":{"ha":1058,"x_min":0,"x_max":0,"o":"m 317 465 l 317 931 l 144 931 b 14 874 114 883 71 874 l 15 874 l 15 733 l 136 733 l 136 465 z m 263 0 l 893 931 l 699 931 l 67 0 z m 1018 0 l 1018 140 l 900 140 l 739 124 b 806 150 767 135 781 140 l 888 174 b 1031 319 971 196 1031 236 b 814 472 1031 411 964 472 b 582 300 654 472 582 399 l 582 283 l 758 283 l 758 300 b 808 329 758 324 771 329 b 858 308 849 329 858 322 b 822 279 858 292 846 288 l 725 242 b 576 69 632 206 576 156 l 576 0 z "},"¼":{"ha":1014,"x_min":0,"x_max":0,"o":"m 317 465 l 317 931 l 144 931 b 14 874 114 883 71 874 l 15 874 l 15 733 l 136 733 l 136 465 z m 263 0 l 893 931 l 699 931 l 67 0 z m 938 0 l 938 88 l 1000 88 l 1000 247 l 938 247 l 938 465 l 736 465 l 504 231 l 504 88 l 757 88 l 757 0 z m 688 247 l 688 256 l 749 313 l 757 313 l 757 247 z "},"¾":{"ha":1093,"x_min":0,"x_max":0,"o":"m 239 465 b 461 600 371 465 461 507 b 329 717 461 671 411 708 l 329 724 b 442 822 407 729 442 771 b 244 944 442 908 367 944 b 14 785 90 944 14 888 l 14 782 l 190 782 l 190 786 b 225 808 190 804 194 808 b 260 789 253 808 260 806 b 240 772 260 775 254 772 l 167 772 l 167 653 l 247 653 b 278 631 268 653 278 650 b 233 606 278 611 268 606 b 190 635 196 606 190 610 l 190 642 l 14 642 l 14 626 b 239 465 14 522 83 465 z m 343 0 l 974 931 l 779 931 l 147 0 z m 1017 0 l 1017 88 l 1079 88 l 1079 247 l 1017 247 l 1017 465 l 815 465 l 583 231 l 583 88 l 836 88 l 836 0 z m 767 247 l 767 256 l 828 313 l 836 313 l 836 247 z "},"+":{"ha":731,"x_min":0,"x_max":0,"o":"m 476 136 l 476 358 l 694 358 l 694 572 l 476 572 l 476 794 l 254 794 l 254 572 l 36 572 l 36 358 l 254 358 l 254 136 z "},"−":{"ha":694,"x_min":0,"x_max":0,"o":"m 694 358 l 694 572 l 36 572 l 36 358 z "},"×":{"ha":676,"x_min":0,"x_max":0,"o":"m 660 301 l 493 468 l 658 633 l 507 785 l 342 619 l 174 786 l 18 629 l 185 463 l 19 297 l 171 146 l 336 311 l 503 144 z "},"÷":{"ha":718,"x_min":0,"x_max":0,"o":"m 511 656 l 511 888 l 207 888 l 207 656 z m 708 358 l 708 572 l 50 572 l 50 358 z m 511 43 l 511 275 l 207 275 l 207 43 z "},"=":{"ha":731,"x_min":0,"x_max":0,"o":"m 694 514 l 694 728 l 36 728 l 36 514 z m 694 203 l 694 417 l 36 417 l 36 203 z "},"¬":{"ha":731,"x_min":0,"x_max":0,"o":"m 708 203 l 708 669 l 36 669 l 36 456 l 486 456 l 486 203 z "},"~":{"ha":751,"x_min":0,"x_max":0,"o":"m 229 321 l 229 346 b 261 382 229 363 232 382 b 308 374 272 382 290 379 l 407 344 b 575 314 475 324 531 314 b 736 515 693 314 736 388 l 736 596 l 519 596 l 519 571 b 492 540 519 549 511 540 b 418 557 475 540 450 547 l 300 593 b 189 614 257 607 221 614 b 11 421 60 614 11 532 l 11 321 z "},"<":{"ha":736,"x_min":0,"x_max":0,"o":"m 22 622 l 22 308 l 681 136 l 681 376 l 257 457 l 257 474 l 681 554 l 681 794 z "},">":{"ha":736,"x_min":0,"x_max":0,"o":"m 694 308 l 694 622 l 36 794 l 36 554 l 460 474 l 460 457 l 36 376 l 36 136 z "},"±":{"ha":750,"x_min":0,"x_max":0,"o":"m 694 -19 l 694 194 l 496 194 l 496 358 l 715 358 l 715 572 l 496 572 l 496 794 l 275 794 l 275 572 l 56 572 l 56 358 l 275 358 l 275 194 l 36 194 l 36 -19 z "},"^":{"ha":793,"x_min":0,"x_max":0,"o":"m 297 389 l 388 694 l 406 694 l 496 389 l 740 389 l 551 931 l 243 931 l 54 389 z "},"≠":{"ha":750,"x_min":0,"x_max":0,"o":"m 714 203 l 714 417 l 464 417 l 511 514 l 714 514 l 714 728 l 615 728 l 674 847 l 510 931 l 411 728 l 56 728 l 56 514 l 307 514 l 260 417 l 56 417 l 56 203 l 154 203 l 96 82 l 260 0 l 358 203 z "},"≈":{"ha":781,"x_min":0,"x_max":0,"o":"m 246 178 l 246 203 b 278 239 246 219 249 239 b 325 231 289 239 307 236 l 424 201 b 592 171 492 181 547 171 b 753 372 710 171 753 244 l 753 453 l 660 453 l 660 465 b 753 629 740 496 753 551 l 753 710 l 536 710 l 536 685 b 508 654 536 663 528 654 b 435 671 492 654 468 661 l 317 707 b 206 728 274 721 238 728 b 28 535 76 728 28 646 l 28 435 l 115 435 l 115 422 b 28 278 53 389 28 339 l 28 178 z m 515 397 b 435 414 496 397 468 404 l 317 449 b 253 461 289 457 269 461 b 232 458 244 461 238 460 l 232 463 b 271 497 232 488 244 497 b 325 488 286 497 301 494 l 424 458 b 533 436 463 447 500 436 b 550 439 540 436 546 438 l 550 433 b 515 397 550 406 539 397 z "},"≤":{"ha":736,"x_min":0,"x_max":0,"o":"m 701 -24 l 701 376 l 276 457 l 276 474 l 701 554 l 701 794 l 42 622 l 42 308 l 469 210 l 469 192 l 42 192 l 42 -24 z "},"≥":{"ha":736,"x_min":0,"x_max":0,"o":"m 694 -24 l 694 192 l 267 192 l 267 210 l 694 308 l 694 622 l 36 794 l 36 554 l 460 474 l 460 457 l 36 376 l 36 -24 z "},"∞":{"ha":1040,"x_min":0,"x_max":0,"o":"m 313 163 b 543 292 432 163 499 221 b 742 163 572 208 644 163 b 1013 465 897 163 1013 239 b 742 768 1013 692 897 768 b 514 631 626 768 560 706 b 313 768 486 719 413 768 b 42 465 157 768 42 692 b 313 163 42 239 157 163 z m 704 546 b 778 465 757 546 778 524 b 699 385 778 407 751 385 b 617 451 643 385 621 403 b 704 546 640 506 664 546 z m 276 465 b 356 546 276 524 303 546 b 438 476 413 546 433 526 b 350 385 413 424 388 385 b 276 465 297 385 276 407 z "},"◊":{"ha":840,"x_min":0,"x_max":0,"o":"m 414 135 l 292 394 l 414 654 l 432 654 l 554 394 l 432 135 z m 586 -83 l 840 394 l 586 872 l 253 872 l 0 394 l 253 -83 z "},"√":{"ha":1175,"x_min":0,"x_max":0,"o":"m 921 0 l 1244 931 l 958 931 l 767 260 l 749 260 l 613 714 l 321 714 l 322 713 l 319 714 l 56 561 l 179 358 l 403 493 l 588 0 z "},"∫":{"ha":508,"x_min":0,"x_max":0,"o":"m -10 -206 b 94 -222 22 -217 58 -222 b 363 46 285 -222 363 -94 l 363 711 b 421 763 363 753 382 763 l 474 763 l 474 931 b 369 947 442 942 406 947 b 101 679 179 947 101 819 l 101 14 b 43 -37 101 -28 82 -37 l -10 -37 z "},"∂":{"ha":925,"x_min":0,"x_max":0,"o":"m 413 -14 b 919 615 736 -14 919 249 b 529 944 919 838 771 944 l 289 944 l 289 690 l 513 690 b 656 596 607 690 656 656 b 640 472 656 564 651 519 l 633 472 b 397 569 606 524 525 569 b 56 264 182 569 56 442 b 413 -14 56 82 189 -14 z m 443 233 b 314 299 342 233 314 247 b 468 381 314 368 369 381 b 596 315 564 381 596 365 b 443 233 596 247 543 233 z "},"∏":{"ha":968,"x_min":0,"x_max":0,"o":"m 310 -187 l 310 696 l 631 696 l 631 -187 l 892 -187 l 892 931 l 49 931 l 49 -187 z "},"π":{"ha":1072,"x_min":0,"x_max":0,"o":"m 178 0 l 439 0 l 439 500 l 594 500 l 594 236 b 878 -14 594 64 685 -14 b 1003 3 929 -14 967 -6 l 1003 221 l 931 221 b 856 275 871 221 856 232 l 856 500 l 1003 500 l 1003 714 l 28 714 l 28 500 l 178 500 z "},"∑":{"ha":746,"x_min":0,"x_max":0,"o":"m 753 -187 l 753 40 l 475 40 l 372 24 l 368 40 l 475 71 l 690 272 l 690 471 l 475 672 l 368 703 l 372 719 l 475 703 l 753 703 l 753 931 l 49 931 l 49 713 l 274 544 l 489 381 l 489 364 l 274 199 l 49 31 l 49 -187 z "},"Ω":{"ha":990,"x_min":0,"x_max":0,"o":"m 444 0 l 444 235 b 308 438 331 235 308 317 b 496 649 308 603 351 649 b 683 438 640 649 683 603 b 547 235 683 317 661 235 l 547 0 l 944 0 l 944 235 l 856 235 b 964 493 919 282 964 360 b 496 903 964 714 792 903 b 28 493 200 903 28 714 b 136 235 28 360 72 282 l 47 235 l 47 0 z "},"℮":{"ha":1018,"x_min":0,"x_max":0,"o":"m 524 -14 b 990 319 799 -14 990 99 l 710 319 b 551 240 710 264 649 240 b 397 258 468 240 424 250 l 397 378 l 990 378 b 510 944 1018 714 889 944 b 28 465 200 944 28 756 b 524 -14 28 175 200 -14 z m 397 674 b 510 690 426 683 463 690 b 622 674 557 690 593 683 l 622 585 l 397 585 z "},"­":{"ha":640,"x_min":0,"x_max":0,"o":"m 613 301 l 613 524 l 28 524 l 28 301 z "}," ":{"ha":208,"x_min":0,"x_max":0,"o":""},"Ω":{"ha":990,"x_min":0,"x_max":0,"o":"m 444 0 l 444 235 b 308 438 331 235 308 317 b 496 649 308 603 351 649 b 683 438 640 649 683 603 b 547 235 683 317 661 235 l 547 0 l 944 0 l 944 235 l 856 235 b 964 493 919 282 964 360 b 496 903 964 714 792 903 b 28 493 200 903 28 714 b 136 235 28 360 72 282 l 47 235 l 47 0 z "},"́":{"ha":611,"x_min":0,"x_max":0,"o":"m 467 778 l 714 951 l 714 958 l 354 958 l 197 785 l 197 778 z "},"̆":{"ha":579,"x_min":0,"x_max":0,"o":"m 289 764 b 519 938 428 764 519 824 l 519 964 l 339 964 l 339 951 b 290 917 339 928 333 917 b 240 951 246 917 240 928 l 240 964 l 60 964 l 60 938 b 289 764 60 824 151 764 z "},"̌":{"ha":639,"x_min":0,"x_max":0,"o":"m 475 778 l 628 951 l 628 958 l 375 958 l 326 892 l 308 892 l 260 958 l 8 958 l 8 951 l 160 778 z "},"̧":{"ha":506,"x_min":0,"x_max":0,"o":"m 299 -335 b 475 -187 413 -335 475 -276 b 310 -50 475 -104 415 -50 l 304 -50 l 304 4 l 172 4 l 172 -168 l 306 -168 b 326 -185 321 -168 326 -172 b 306 -201 326 -197 321 -201 l 133 -201 l 133 -335 z "},"̂":{"ha":639,"x_min":0,"x_max":0,"o":"m 260 778 l 308 844 l 326 844 l 375 778 l 628 778 l 628 785 l 475 958 l 160 958 l 8 785 l 8 778 z "},"̦":{"ha":567,"x_min":0,"x_max":0,"o":"m 240 -278 l 436 -104 l 436 -97 l 106 -97 l -6 -271 l -6 -278 z "},"̒":{"ha":832,"x_min":0,"x_max":0,"o":"m 528 958 l 332 785 l 332 778 l 663 778 l 774 951 l 774 958 z "},"̈":{"ha":669,"x_min":0,"x_max":0,"o":"m 622 778 l 622 971 l 375 971 l 375 778 z m 294 778 l 294 971 l 47 971 l 47 778 z "},"̇":{"ha":379,"x_min":0,"x_max":0,"o":"m 321 778 l 321 971 l 60 971 l 60 778 z "},"̀":{"ha":611,"x_min":0,"x_max":0,"o":"m 435 778 l 435 785 l 276 958 l -83 958 l -83 951 l 164 778 z "},"̋":{"ha":811,"x_min":0,"x_max":0,"o":"m 303 778 l 438 951 l 438 958 l 161 958 l 78 785 l 78 778 z m 631 778 l 767 951 l 767 958 l 490 958 l 406 785 l 406 778 z "},"̄":{"ha":583,"x_min":0,"x_max":0,"o":"m 525 778 l 525 950 l 60 950 l 60 778 z "},"̨":{"ha":407,"x_min":0,"x_max":0,"o":"m 347 -260 l 347 -107 l 272 -107 b 258 -96 264 -107 258 -104 b 267 -79 258 -89 261 -86 l 329 0 l 158 0 l 128 -35 b 61 -164 90 -76 61 -119 b 181 -260 61 -231 104 -260 z "},"̊":{"ha":417,"x_min":0,"x_max":0,"o":"m 208 756 b 357 878 296 756 357 797 b 208 1000 357 958 296 1000 b 60 878 119 1000 60 958 b 208 756 60 797 119 756 z m 208 857 b 167 878 175 857 167 863 b 208 899 167 893 175 899 b 250 878 242 899 250 893 b 208 857 250 863 242 857 z "},"̸":{"ha":806,"x_min":0,"x_max":0,"o":"m 814 622 l 722 724 l -8 90 l 83 -10 z "},"̷":{"ha":510,"x_min":0,"x_max":0,"o":"m 524 563 l 454 708 l -14 501 l 56 356 z "},"̶":{"ha":1008,"x_min":0,"x_max":0,"o":"m 1008 642 l 1008 849 l 0 849 l 0 642 z "},"̵":{"ha":867,"x_min":0,"x_max":0,"o":"m 588 672 l 588 853 l 0 853 l 0 672 z "},"̃":{"ha":665,"x_min":0,"x_max":0,"o":"m 233 763 l 233 793 b 254 821 233 808 238 821 b 282 814 261 821 269 818 l 364 782 b 482 754 403 767 442 754 b 606 888 579 754 606 824 l 606 985 l 432 985 l 432 960 b 411 928 432 936 426 928 b 363 942 400 928 385 933 l 303 967 b 200 993 265 982 238 993 b 60 844 83 993 60 910 l 60 763 z "},"ﬃ":{"ha":1335,"x_min":0,"x_max":0,"o":"m 363 0 l 363 500 l 586 500 l 586 0 l 847 0 l 847 500 l 986 500 l 986 714 l 836 714 b 894 763 836 753 856 763 l 986 763 l 986 931 b 854 947 938 942 904 947 b 588 714 679 947 600 840 l 351 714 b 410 763 351 753 371 763 l 501 763 l 501 931 b 369 947 453 942 419 947 b 103 714 194 947 115 840 l 0 714 l 0 500 l 101 500 l 101 0 z m 1292 778 l 1292 931 l 1032 931 l 1032 778 z m 1293 0 l 1293 714 l 1032 714 l 1032 0 z "},"ﬄ":{"ha":1339,"x_min":0,"x_max":0,"o":"m 363 0 l 363 500 l 586 500 l 586 0 l 847 0 l 847 500 l 986 500 l 986 714 l 836 714 b 894 763 836 753 856 763 l 986 763 l 986 931 b 854 947 938 942 904 947 b 588 714 679 947 600 840 l 351 714 b 410 763 351 753 371 763 l 501 763 l 501 931 b 369 947 453 942 419 947 b 103 714 194 947 115 840 l 0 714 l 0 500 l 101 500 l 101 0 z m 1297 0 l 1297 931 l 1038 931 l 1038 0 z "},"ﬁ":{"ha":850,"x_min":0,"x_max":0,"o":"m 363 0 l 363 500 l 501 500 l 501 714 l 351 714 b 410 763 351 753 371 763 l 501 763 l 501 931 b 369 947 453 942 419 947 b 103 714 194 947 115 840 l 0 714 l 0 500 l 101 500 l 101 0 z m 807 778 l 807 931 l 547 931 l 547 778 z m 808 0 l 808 714 l 547 714 l 547 0 z "},"ﬂ":{"ha":854,"x_min":0,"x_max":0,"o":"m 363 0 l 363 500 l 501 500 l 501 714 l 351 714 b 410 763 351 753 371 763 l 501 763 l 501 931 b 369 947 453 942 419 947 b 103 714 194 947 115 840 l 0 714 l 0 500 l 101 500 l 101 0 z m 813 0 l 813 931 l 553 931 l 553 0 z "},"⁰":{"ha":536,"x_min":0,"x_max":0,"o":"m 268 451 b 521 697 418 451 521 538 b 268 944 521 857 418 944 b 15 697 118 944 15 857 b 268 451 15 538 118 451 z m 268 626 b 208 697 222 626 208 640 b 268 769 208 754 222 769 b 328 697 314 769 328 754 b 268 626 328 640 314 626 z "},"⁴":{"ha":526,"x_min":0,"x_max":0,"o":"m 449 465 l 449 553 l 511 553 l 511 713 l 449 713 l 449 931 l 247 931 l 15 696 l 15 553 l 268 553 l 268 465 z m 199 713 l 199 721 l 260 778 l 268 778 l 268 713 z "}}}
